<svg width="1" height="1" viewBox="0 0 1 1" fill="none" xmlns="http://www.w3.org/2000/svg">
<clipPath id="logo-clip" clipPathUnits="objectBoundingBox">
<path d="M0.585266 0.660034L0.641958 0.693286L0.865307 0.312496L0.808616 0.279244L0.585266 0.660034Z" fill="white"/>
<path d="M0.538037 0.312476C0.538037 0.395318 0.47088 0.462476 0.388037 0.462476C0.305194 0.462476 0.238037 0.395318 0.238037 0.312476C0.238037 0.229633 0.305194 0.162476 0.388037 0.162476C0.47088 0.162476 0.538037 0.229633 0.538037 0.312476Z" fill="white"/>
<path d="M0.538037 0.312476C0.538037 0.395318 0.47088 0.462476 0.388037 0.462476C0.305194 0.462476 0.238037 0.395318 0.238037 0.312476C0.238037 0.229633 0.305194 0.162476 0.388037 0.162476C0.47088 0.162476 0.538037 0.229633 0.538037 0.312476Z" fill="white"/>
<path d="M0.319287 0.687476C0.319287 0.770318 0.25213 0.837476 0.169287 0.837476C0.0864444 0.837476 0.0192871 0.770318 0.0192871 0.687476C0.0192871 0.604633 0.0864444 0.537476 0.169287 0.537476C0.25213 0.537476 0.319287 0.604633 0.319287 0.687476Z" fill="white"/>
<path d="M0.760693 0.687476C0.760693 0.770318 0.693536 0.837476 0.610693 0.837476C0.527851 0.837476 0.460693 0.770318 0.460693 0.687476C0.460693 0.604633 0.527851 0.537476 0.610693 0.537476C0.693536 0.537476 0.760693 0.604633 0.760693 0.687476Z" fill="white"/>
<path d="M0.173218 0.585938L0.30603 0.363281H0.470093L0.58728 0.558594L0.641968 0.636719L0.49353 0.734375H0.282593V0.667969H0.49353L0.55603 0.636719L0.43103 0.417969H0.345093L0.231812 0.609375L0.173218 0.585938Z" fill="white"/>
<path d="M0.980664 0.312476C0.980664 0.395318 0.913507 0.462476 0.830664 0.462476C0.747821 0.462476 0.680664 0.395318 0.680664 0.312476C0.680664 0.229633 0.747821 0.162476 0.830664 0.162476C0.913507 0.162476 0.980664 0.229633 0.980664 0.312476Z" fill="white"/>
</clipPath>
</svg>
