<svg width="300" height="300" viewBox="0 0 300 300" fill="none" xmlns="http://www.w3.org/2000/svg">
<g id="circle">
<ellipse id="bg" cx="150" cy="150" rx="100" ry="130" fill="#C5C5C5"/>
<g id="pattern">
<path d="M201.332 38.4113C200.472 38.533 199.591 38.5961 198.694 38.5961C190.704 38.5961 183.965 33.5865 181.87 26.7417C188.719 29.7331 195.236 33.6621 201.332 38.4113Z" fill="black"/>
<path d="M228.407 69.3047C222.008 70.7029 217.218 76.4023 217.218 83.2205C217.218 91.0873 223.595 97.4646 231.462 97.4646C234.842 97.4646 237.947 96.2874 240.389 94.3206C237.122 85.3723 233.092 76.9863 228.407 69.3047Z" fill="black"/>
<path d="M244.202 106.273C226.238 108.108 212.222 123.284 212.222 141.733C212.222 161.389 228.133 177.33 247.778 177.379C249.234 168.552 250 159.392 250 150C250 134.659 247.956 119.938 244.202 106.273Z" fill="black"/>
<path d="M243.831 195.054C239.236 193.357 234.238 192.426 229.011 192.426C206.408 192.426 188.085 209.833 188.085 231.306C188.085 243.098 193.611 253.665 202.338 260.795C221.266 245.651 236.02 222.539 243.831 195.054Z" fill="black"/>
<path d="M104.81 266C114.726 260.118 121.301 249.803 121.301 238.061C121.301 219.767 105.34 204.937 85.6506 204.937C76.797 204.937 68.6971 207.935 62.4634 212.899C72.1537 235.642 86.9361 254.209 104.81 266Z" fill="black"/>
<path d="M50.0013 150.671C64.6388 149.942 76.2828 137.843 76.2828 123.025C76.2828 111.259 68.9425 101.209 58.5917 97.2017C53.0692 113.335 50 131.202 50 150C50 150.224 50.0004 150.447 50.0013 150.671Z" fill="black"/>
<path d="M62.93 86.0179C68.7177 93.2001 77.5865 97.7951 87.5285 97.7951C104.967 97.7951 119.103 83.6587 119.103 66.2205C119.103 53.2728 111.31 42.1454 100.158 37.2731C84.6459 48.8893 71.7569 65.7611 62.93 86.0179Z" fill="black"/>
<path d="M113.209 29.0808C114.414 37.022 121.71 43.129 130.532 43.129C140.196 43.129 148.03 35.8004 148.03 26.7601C148.03 24.3798 147.487 22.1181 146.51 20.0777C134.785 20.6005 123.572 23.7474 113.209 29.0808Z" fill="black"/>
<path d="M148.991 209.735C179.626 209.735 204.461 184.901 204.461 154.265C204.461 123.63 179.626 98.7951 148.991 98.7951C118.356 98.7951 93.5208 123.63 93.5208 154.265C93.5208 184.901 118.356 209.735 148.991 209.735Z" fill="black"/>
<path d="M205.403 70.7346C205.403 84.9449 193.884 96.4646 179.673 96.4646C165.463 96.4646 153.943 84.9449 153.943 70.7346C153.943 56.5243 165.463 45.0046 179.673 45.0046C193.884 45.0046 205.403 56.5243 205.403 70.7346Z" fill="black"/>
<path d="M87.9634 176.422C87.9634 185.813 80.3501 193.426 70.9587 193.426C61.5672 193.426 53.9539 185.813 53.9539 176.422C53.9539 167.03 61.5672 159.417 70.9587 159.417C80.3501 159.417 87.9634 167.03 87.9634 176.422Z" fill="black"/>
<path d="M161.934 275.875C173.256 275.875 182.434 266.697 182.434 255.375C182.434 244.052 173.256 234.874 161.934 234.874C150.611 234.874 141.433 244.052 141.433 255.375C141.433 266.697 150.611 275.875 161.934 275.875Z" fill="black"/>
</g>
</g>
</svg>
