<svg width="300" height="300" viewBox="0 0 300 300" fill="none" xmlns="http://www.w3.org/2000/svg">
<g id="flat-spot">
<ellipse id="bg" cx="150" cy="150" rx="100" ry="130" fill="black"/>
<g id="pattern">
<path d="M244.823 108.601C247.053 117.24 248.605 126.284 249.396 135.625C228.584 134.395 214.385 130.31 213.941 124.444C213.515 118.82 225.836 112.912 244.823 108.601Z" fill="#C4C4C4"/>
<path d="M206.027 42.3037C213.677 49.0428 220.571 57.1234 226.509 66.2855C190.58 63.9047 162.767 57.4119 163.072 51.1956C163.313 46.2968 180.949 42.9406 206.027 42.3037Z" fill="#C4C4C4"/>
<path d="M84.1565 52.1548C88.9298 46.7219 94.1042 41.8697 99.6143 37.6832C102.657 39.4616 104.29 41.3246 104.199 43.1885C104.008 47.0753 96.3504 50.2222 84.1565 52.1548Z" fill="#C4C4C4"/>
<path d="M56.8408 102.649C59.4437 94.0006 62.7386 85.8036 66.6369 78.1727C78.5558 76.0981 93.3621 74.8691 109.405 74.8691C148.821 74.8691 180.774 82.288 180.774 91.4396C180.774 100.591 148.821 108.01 109.405 108.01C88.6061 108.01 69.8854 105.944 56.8408 102.649Z" fill="#C4C4C4"/>
<path d="M52.3846 178.348C89.5034 180.292 118.564 187.174 118.292 194.19C118.04 200.695 92.6688 205.135 59.3671 205.008C56.3335 196.575 53.9758 187.649 52.3846 178.348Z" fill="#C4C4C4"/>
<path d="M107.811 267.899C99.5147 262.873 91.8368 256.41 84.9667 248.758L85.4001 248.665H111.666C137.236 248.873 149.508 249.329 164.525 251.275C174.346 253.567 177.152 255.642 176.271 261.064C174.229 263.763 170.184 265.299 157.591 268.079C157.591 268.079 145.041 269.678 136.953 269.874C127.644 270.099 122.369 269.933 113.134 268.732C111.525 268.522 109.639 268.218 107.811 267.899Z" fill="#C4C4C4"/>
<path d="M234.338 219.881C232.916 222.777 231.407 225.594 229.817 228.328C218.699 230.386 198.265 230.364 186.533 230.352H186.515C185.666 230.351 184.863 230.35 184.113 230.35C171.285 230.35 152.428 227.077 144.603 225.441C141.674 224.719 135.622 222.062 134.851 217.213C135.624 212.641 145.862 204.618 180.635 209.1C214.751 213.497 228.636 215.752 234.338 219.881Z" fill="#C4C4C4"/>
<path d="M219.68 154.56C219.521 163.093 187.248 169.414 147.595 168.678C107.942 167.941 75.9259 160.426 76.0844 151.893C76.2428 143.359 108.516 137.038 148.169 137.775C187.822 138.511 219.838 146.026 219.68 154.56Z" fill="#C4C4C4"/>
</g>
</g>
</svg>
