<svg width="300" height="300" viewBox="0 0 300 300" fill="none" xmlns="http://www.w3.org/2000/svg">
<g id="jagged-stripe">
<ellipse id="bg" cx="150" cy="150" rx="100" ry="130" fill="black"/>
<g id="pattern">
<path d="M241.254 96.7537C244.947 107.434 247.564 118.88 248.923 130.858L226.176 102.502L171.082 116.4L106.168 76.1197L165.922 96.3431L225.594 82.9441L241.254 96.7537Z" fill="#C4C4C4"/>
<path d="M210.698 46.6786C217.08 53.0241 222.856 60.3461 227.896 68.473L209.201 71.8252L186.294 52.8579L125.015 63.6547L93.742 42.5081C99.1396 37.7247 104.916 33.6104 111.001 30.257L132.343 45.1034L191.255 35.3495L207.742 48.0431L210.698 46.6786Z" fill="#C4C4C4"/>
<path d="M52.5691 120.594C54.1365 111.782 56.393 103.313 59.2608 95.2887L63.9296 92.7364L110.193 118.009L147.058 117.622L189.686 154.533L149.916 138.253H111.39L58.9435 115.758L52.5691 120.594Z" fill="#C4C4C4"/>
<path d="M242.287 200.152C244.319 193.84 245.979 187.276 247.232 180.505L201.115 188.685L145.209 161.009L76.0759 167.901L137.429 177.459L192.557 211.247L242.287 200.152Z" fill="#C4C4C4"/>
<path d="M217.173 246.305L159.213 228.142L205.352 258.286C209.523 254.675 213.474 250.667 217.173 246.305Z" fill="#C4C4C4"/>
<path d="M183.779 272.397L166.438 252.594L128.203 256.373L92.7478 225.808L72.0991 231.519C75.8502 237.569 80.0098 243.173 84.5234 248.261L85.6701 247.383L121.056 272.822L164.326 268.488L175.082 275.877C178.036 274.885 180.937 273.722 183.779 272.397Z" fill="#C4C4C4"/>
<path d="M57.6294 199.892L91.7475 196.354L53.6389 184.873C54.7376 190.015 56.0732 195.028 57.6294 199.892Z" fill="#C4C4C4"/>
</g>
</g>
</svg>
