<svg width="300" height="300" viewBox="0 0 300 300" fill="none" xmlns="http://www.w3.org/2000/svg">
<g id="lightning">
<ellipse id="bg" cx="150" cy="150" rx="100" ry="130" fill="black"/>
<g id="pattern">
<path d="M147.651 39.3556C148.41 41.128 149.193 56.3969 150.602 84.0915C157.503 65.3484 161.323 54.9143 166.092 39.3556C166.722 36.8261 166.57 35.583 165.474 33.6513C161.384 29.3285 158.711 27.1498 153.178 23.7596L152.979 23.6145C151.428 22.486 150.459 21.7806 150.367 20.0009C150.245 20.0003 150.122 20 150 20C144.95 20 139.988 20.4866 135.14 21.4256L145.141 31.7279C147.047 34.5528 147.581 36.2255 147.651 39.3556Z" fill="#C4C4C4"/>
<path d="M234.398 80.2408C232.666 86.9675 231.733 91.6261 230.397 99.3856C229.741 103.528 230.46 105.413 232.282 108.556L241.822 123.431C243.354 126.008 243.42 127.688 242.745 130.919L236.385 159.334C235.758 163.182 236.285 165.042 237.821 168.156L245.104 179.645C247.443 183.817 246.508 185.893 243.976 189.492L233.205 207.649C231.306 210.739 231.195 212.357 231.871 215.137C232.162 217.049 232.598 219.78 233.057 222.422C243.757 201.726 250 176.811 250 150C250 124.329 244.277 100.397 234.398 80.2408Z" fill="#C4C4C4"/>
<path d="M210.286 253.729L207.039 241.853C206.32 239.212 206.194 237.565 207.039 233.986C208.975 225.211 210.214 220.296 212.823 211.541C198.109 227.371 193.532 232.532 190.726 236.3C189.429 237.725 189.206 238.838 189.337 241.159L191.883 257.587C192.264 259.242 191.892 259.959 190.726 261.058C184.678 268.021 181.114 272.165 179.619 274.203C190.809 269.698 201.158 262.708 210.286 253.729Z" fill="#C4C4C4"/>
<path d="M129.846 277.359C127.348 274.153 123.815 270.725 117.42 264.658C116.017 263.946 115.583 262.956 115.708 259.672L115.261 242.776C115.305 240.978 115.275 239.955 114.219 237.864C108.205 225.857 105.054 220.045 99.7801 211.442C100.56 220.52 101.057 226.589 101.343 239.278C101.435 242.333 101.301 244.065 100.227 247.242L96.7441 260.051C106.726 268.231 117.898 274.18 129.846 277.359Z" fill="#C4C4C4"/>
<path d="M65.9777 79.48C66.103 81.9323 66.4175 84.8752 66.8666 88.7194L72.0372 113.413C72.6203 118.111 71.9582 120.222 70.1651 123.665L58.6651 151.569C57.2477 156.099 57.6056 157.73 58.6651 160.305L73.1961 184.375C75.361 187.485 75.4516 190.925 75.3356 197.48L73.731 224.313C83.3224 208.695 88.0844 200.487 94.2349 187.941C95.5753 184.316 95.4223 182.38 94.2349 179.026L83.7155 156.828C82.0417 153.733 81.8857 151.817 83.7155 147.913L95.1264 125.716C96.7112 121.677 96.9385 119.296 95.6613 114.751L86.2116 91.3047C85.1814 88.0421 85.0956 86.1584 86.2116 82.6574C93.9154 62.0741 98.3039 51.5254 106.27 34.696L85.0527 55.0216L71.3259 69.7442C69.4324 72.8767 67.6472 76.1252 65.9777 79.48Z" fill="#C4C4C4"/>
<path d="M155.22 265.063C155.22 265.063 159.386 218.108 159.555 215.086C159.724 212.064 160.018 210.329 161.603 207.017L172.321 184.618C173.087 182.541 172.906 181.524 171.719 179.921L156.786 162.218C152.552 157.576 151.495 154.535 151.848 148.369L155.581 125.006C156.197 121.074 155.675 119.218 153.052 116.576L136.072 102.486L128.452 95.2897C126.559 92.9194 126.176 91.0022 126.517 86.6142L129.943 51.2434C129.943 51.2434 121.41 68.3372 116.839 79.677C114.9 84.4877 112.129 92.0953 112.129 92.0953C110.57 96.1636 110.826 98.2045 113.242 101.43L131.913 125.839C133.792 129.461 133.828 131.398 131.913 134.66C129.997 137.922 120.18 152.902 120.18 152.902C119.402 154.132 119.366 154.791 120.18 155.9L142.789 182.278C143.905 183.833 143.923 184.715 143.389 186.218C139.958 194.499 138.313 198.91 135.938 206.344C135.197 209.281 135.381 210.739 136.452 213.11L155.22 265.063Z" fill="#C4C4C4"/>
<path d="M194.561 189.868L194.531 189.946L193.859 152.088C193.828 147.879 193.484 145.809 191.845 143.022L176.399 117.251C174.986 115.187 175.05 113.989 176.399 111.795L192.348 85.7723C193.61 83.7452 193.409 82.333 191.677 79.3926L182.107 67.6406C180.818 66.1454 180.431 64.7044 180.261 61.1769L178.918 27.1798L191.677 55.4688C193.165 58.5315 193.987 59.9846 195.454 62.0163C202.082 69.9979 205.553 74.2511 209.053 79.3926C209.961 81.2661 210.022 82.3786 209.053 84.5132C203.105 100.261 201.031 106.125 198.728 113.306C197.908 115.863 198.47 117.709 200.575 121.448L210.732 138.489C211.975 140.554 212.066 141.902 211.236 144.617C206.398 159.181 202.14 170.22 194.561 189.868Z" fill="#C4C4C4"/>
</g>
</g>
</svg>
