<svg width="300" height="300" viewBox="0 0 300 300" fill="none" xmlns="http://www.w3.org/2000/svg">
<g id="nugget">
<ellipse id="bg" cx="150" cy="150" rx="100" ry="130" fill="black"/>
<g id="pattern">
<path d="M164.873 21.428C160.02 20.4874 155.054 20 150 20C144.727 20 139.549 20.5306 134.496 21.5529C137.158 30.4455 139.065 34.2074 142.834 39.1697C145.083 41.2122 146.432 41.7746 149.234 40.1018C151.581 38.2296 152.873 36.9843 155.013 33.3907C156.177 31.3622 156.861 30.2578 158.555 28.7923C162.418 24.8571 164.311 22.8059 164.873 21.428Z" fill="#C4C4C4"/>
<path d="M71.7583 69.0338C77.2181 60.129 83.5586 52.1772 90.6084 45.4011C91.5482 47.4953 91.8393 50.0497 91.8632 54.8928C91.9763 58.6008 88.3671 61.0223 81.2295 65.4066C75.8025 67.8227 73.4505 68.7152 71.7583 69.0338Z" fill="#C4C4C4"/>
<path d="M51.2472 129.41C51.9212 123.904 52.8612 118.513 54.0494 113.26C55.0594 115.076 55.6551 116.578 56.3337 119.16C57.04 121.856 56.9395 123.332 56.3337 125.934C55.4798 127.571 54.7507 128.298 52.79 129.096C52.1966 129.249 51.7239 129.355 51.2472 129.41Z" fill="#C4C4C4"/>
<path d="M50.8212 166.738C50.2794 161.258 50 155.671 50 150C50 148.21 50.0278 146.429 50.083 144.656C50.8361 143.913 51.6866 143.183 52.8281 142.302C56.5628 140.372 58.5511 140.38 61.9559 141.835C68.9508 146.957 71.167 149.469 74.0555 153.722C77.4281 159.192 78.1516 161.939 78.216 166.501C78.2456 169.077 77.9602 170.26 77.2396 172.19C75.9565 173.889 75.1666 174.296 73.7158 174.695C66.3704 174.695 56.8568 170.761 50.8212 166.738Z" fill="#C4C4C4"/>
<path d="M59.1981 204.535C56.7555 197.674 54.7595 190.488 53.2588 183.042C55.5963 184.051 57.6289 185.328 60.3426 187.389C63.1355 190.335 63.7202 192.089 63.272 195.37C61.8688 199.65 60.7141 202.221 59.1981 204.535Z" fill="#C4C4C4"/>
<path d="M68.356 225.084C67.8521 224.16 67.3572 223.227 66.8716 222.285C66.6012 220.651 66.7204 219.418 67.4359 217.552C68.3151 215.031 68.8872 213.794 70.2621 212.376C71.5039 211.352 72.2792 211.106 73.9057 211.695C75.051 212.357 75.6182 212.793 76.3234 213.84C77.1138 215.681 76.7272 216.226 75.9488 217.144L74.5527 218.914C73.9311 219.879 73.8449 220.443 73.9057 221.468C74.0025 222.394 74 222.879 73.9057 223.681C73.4803 225.264 72.7762 225.823 70.841 226.338C69.6914 225.995 68.9669 225.627 68.356 225.084Z" fill="#C4C4C4"/>
<path d="M114.875 271.754C101.864 265.408 90.1415 255.638 80.3554 243.289C82.5582 241.574 84.2258 240.708 86.5889 240.094C89.7531 239.436 91.4698 239.22 93.6663 241.14C95.2166 243.044 95.9413 244.167 96.4574 246.473C96.9987 249.432 97.666 250.788 99.6473 252.554L110.114 262.173C112.509 264.75 113.474 266.353 114.45 269.5L114.875 271.754Z" fill="#C4C4C4"/>
<path d="M216.688 246.873C213.316 250.799 209.737 254.432 205.975 257.742C204.52 258.228 203.038 258.426 201.219 258.587C196.592 258.35 194.74 257.576 192.006 255.709C188.376 252.389 186.996 250.215 185.732 245.763C184.975 239.557 185.123 236.353 187.34 231.575C189.996 227.642 191.17 225.516 191.698 222.112C192.315 218.147 192.86 216.084 195.484 213.739C198.117 212.214 199.803 212.376 203.226 214.771C209.099 219.86 211.528 223.016 214.295 229.166C217.285 236.004 217.799 239.569 217.162 245.569C217.002 246.032 216.845 246.465 216.688 246.873Z" fill="#C4C4C4"/>
<path d="M249.474 136.58C249.822 140.991 250 145.469 250 150C250 168.728 246.954 186.53 241.47 202.617C240.725 202.682 239.901 202.708 238.965 202.722C233.539 201.688 231.531 200.11 228.898 196.384C225.775 190.728 223.353 184.789 218.583 172.336C217.715 167.972 217.696 165.826 219.826 163.388L228.774 153.756C230.511 151.555 231.038 146.431 231.394 142.978C231.559 141.377 231.686 140.135 231.881 139.712C233.453 135.307 234.937 133.46 240.456 133.125C243.931 133.186 246.562 134.132 249.474 136.58Z" fill="#C4C4C4"/>
<path d="M117.836 33.8948C118.505 30.9077 117.394 30.6119 114.249 31.1642C108.118 32.7704 104.964 36.0358 105.12 38.6866C105.456 40.0759 106.807 40.5873 109.082 40.2928C113.559 38.3645 115.591 37.026 117.836 33.8948Z" fill="#C4C4C4"/>
<path d="M192.315 117.71C195.93 113.67 198.468 112.947 203.451 113.032C207.547 113.557 209.684 114.378 213.265 116.592C215.789 118.566 216.634 119.924 217.587 122.592C218.473 128.268 218.24 131.589 216.875 137.695C215.767 141.034 214.522 142.312 211.841 144.153C208.334 145.427 206.115 145.534 201.824 144.915C198.147 143.857 196.326 142.725 193.332 140.135C190.638 136.919 189.505 134.665 189.111 128.694C189.123 124.854 189.57 122.541 192.315 117.71Z" fill="#C4C4C4"/>
<path d="M85.3408 73.6007C87.8821 71.0755 89.6331 70.2729 94.1406 71.4416C97.2062 73.0494 98.2344 74.2122 99.4729 76.5122C100.601 79.4782 100.913 81.1317 101.043 84.069C100.988 89.2085 100.402 91.6877 98.1317 95.2243C95.892 97.7945 94.4859 98.818 91.818 100.197C89.063 101.065 87.5571 101.209 84.9809 100.491C82.8755 98.9244 81.9862 97.5726 81.4478 93.4578C81.1558 89.2768 81.1265 86.952 81.4478 82.8586C82.6753 78.5067 83.4689 76.3323 85.3408 73.6007Z" fill="#C4C4C4"/>
<path d="M177.911 195.679C175.712 196.923 174.498 197.245 172.417 196.104C169.91 193.373 168.793 191.263 168.093 184.904C167.821 178.849 167.97 175.792 170.219 172.569C172.851 170.059 174.585 168.912 178.974 168.174C183.61 167.518 186.181 167.589 190.707 168.457C195.448 169.685 197.466 170.792 198.93 174.164C199.607 177.351 199.101 179.179 197.796 182.458C196.181 185.821 195.102 186.558 193.011 186.782L185.638 186.57C183.978 186.55 183.377 187.04 182.519 188.236C181.364 189.82 180.938 190.967 180.215 193.056C179.468 194.343 178.944 194.885 177.911 195.679Z" fill="#C4C4C4"/>
<path d="M131.242 175.756C129.011 176.351 128.061 176.711 126.572 177.369C121.248 180.046 118.572 181.63 114.005 184.509C109.975 186.065 108.143 185.647 105.145 184.092C102.387 182.057 101.038 180.481 99.1005 176.622C98.1653 173.11 97.7349 171.13 101.15 167.138C104.331 163.923 106.57 162.185 115.186 159.738C122.148 158.468 126.212 158.324 134.05 160.155C138.507 161.794 140.905 162.919 144.299 166.721C146.243 169.558 146.603 170.993 145.515 173.183C143.83 175.063 142.257 175.553 138.221 175.399C135.692 175.155 134.175 175.215 131.242 175.756Z" fill="#C4C4C4"/>
<path d="M199.023 65.7695C202.525 64.534 204.262 64.2941 206.596 65.395C209.174 67.1976 210.258 68.2191 211.59 70.0556C213.445 72.9957 213.548 74.5026 212.505 77.0048C212.008 77.8411 211.695 78.2265 211.09 78.7941C208.27 79.6728 206.922 79.734 205.015 79.0854C201.373 77.176 199.815 75.812 197.775 72.9268C196.897 70.9757 196.463 69.862 197.358 67.3092C197.824 66.5291 198.172 66.1754 199.023 65.7695Z" fill="#C4C4C4"/>
<path d="M118.519 104.616C121.314 98.1846 122.653 94.2573 123.194 84.6539C123.446 69.1254 128.266 64.1564 144.911 61.6796C152.092 62.0917 157.657 63.6022 176.365 73.5976C182.929 78.0233 185.292 80.8739 185.826 86.9901C185.488 97.7496 184.525 102.29 182.14 109.106C174.47 126.029 168.189 132.358 154.126 139.085C133.954 145.942 123.609 147.83 106.945 147.563C97.4191 146.308 94.0772 144.824 92.57 140.437C90.6459 132.183 90.7943 128.092 95.5189 122.744C98.3461 120.275 100.35 118.797 106.945 115.495C112.399 112.367 115.087 110.17 118.519 104.616Z" fill="#C4C4C4"/>
<path d="M144.269 211.502C145.911 207.989 146.118 205.755 144.269 200.95C141.979 196.937 140.422 195.244 137.33 192.863C134.785 191.401 133.007 191.096 129.014 191.773C115.232 195.862 110.866 198.682 106.303 204.219C104.305 206.908 104.402 209.012 105.041 212.993C106.026 215.841 107.777 218.188 112.497 223.374C114.255 225.77 114.519 226.961 114.561 228.994V231.518C115.428 235.994 116.563 238.168 119.207 241.726C124.347 247.508 127.377 250.168 133.487 252.164C137.513 252.856 139.927 252.71 144.556 251.304C149.75 247.762 151.903 245.354 152.298 239.145C152.201 235.678 150.872 234.489 148.395 232.273C147.424 231.404 146.276 230.378 144.957 228.994C143.239 226.008 142.905 223.318 142.893 217.581C143.247 215.502 143.522 214.213 144.269 211.502Z" fill="#C4C4C4"/>
</g>
</g>
</svg>
