<svg width="300" height="300" viewBox="0 0 300 300" fill="none" xmlns="http://www.w3.org/2000/svg">
<g id="shuriken">
<ellipse id="bg" cx="150" cy="150" rx="100" ry="130" fill="black"/>
<g id="pattern">
<path d="M108.168 46.5495C98.0189 50.7752 92.9245 53.9696 84.5024 60.5878C94.635 49.9671 101.295 44.9004 116.694 39.058C130.466 34.6393 138.221 33.1304 152.142 33.211C165.979 33.9896 173.359 35.1895 185.153 40.0934C201.62 47.8287 208.464 53.2751 218.956 63.7861C224.993 70.4465 227.463 74.3414 230.955 81.449C233.065 86.7022 233.45 89.732 232.843 95.2748C231.754 101.254 230.182 103.497 226.813 106.847C222.423 109.663 219.743 110.628 214.267 110.38C208.366 109.282 205.124 107.927 199.588 102.827C194.556 96.5675 192.797 92.678 191.792 85.0425C191.683 79.6665 191.724 76.8292 192.706 73.3484C193.209 70.7157 192.82 69.1043 190.27 65.8569C184.169 59.8415 180.34 56.7865 172.85 51.9093C160.976 45.4204 153.571 43.4406 139.595 41.6161C127.295 41.2802 120.407 42.3261 108.168 46.5495Z" fill="#C4C4C4"/>
<path d="M189.569 255.999C199.958 252.404 205.239 249.528 214.051 243.44C203.286 253.419 196.327 258.067 180.598 262.953C166.581 266.519 158.749 267.549 144.859 266.614C131.095 264.988 123.803 263.337 112.332 257.719C96.3706 248.987 89.874 243.131 80.0465 231.996C74.43 224.978 72.2033 220.939 69.1544 213.63C67.3712 208.257 67.1723 205.21 68.1183 199.715C69.572 193.814 71.2789 191.671 74.8469 188.534C79.4015 185.993 82.1355 185.195 87.5868 185.778C93.4095 187.235 96.5613 188.787 101.774 194.217C106.413 200.774 107.929 204.764 108.464 212.447C108.243 217.819 108.028 220.649 106.835 224.063C106.171 226.66 106.46 228.292 108.806 231.69C114.526 238.068 118.161 241.352 125.337 246.68C136.791 253.885 144.06 256.316 157.898 258.995C170.154 260.085 177.094 259.464 189.569 255.999Z" fill="#C4C4C4"/>
<path d="M135.305 100.648L122.975 114.303L141.315 132.112H161.51L179.143 113.817L167.697 100.913C166.569 99.576 166.213 98.5189 166.15 96.0078C165.921 92.6601 165.753 91.283 165.399 89.5116C164.667 86.0032 164.181 83.9766 162.924 80.0545C160.822 73.5965 158.783 70.7083 154.572 66.0458C151.1 62.3754 148.738 61.2113 144.187 59.8589C136.319 58.9421 132.358 59.3142 126.113 61.6708C130.403 65.246 132.566 67.5413 135.702 72.4978C136.646 74.3309 136.804 75.5241 136.851 77.7566V96.8474C136.758 98.5493 136.342 99.3484 135.305 100.648Z" fill="#C4C4C4"/>
<path d="M166.813 195.276L179.143 181.621L160.803 163.812H140.608L122.975 182.107L134.421 195.011C135.549 196.348 135.904 197.405 135.967 199.916C136.197 203.264 136.365 204.641 136.719 206.412C137.451 209.921 137.937 211.947 139.193 215.869C141.295 222.327 143.335 225.216 147.546 229.878C151.018 233.548 153.38 234.713 157.931 236.065C165.798 236.982 169.759 236.61 176.005 234.253C171.715 230.678 169.552 228.383 166.415 223.426C165.472 221.593 165.314 220.4 165.267 218.167V199.077C165.36 197.375 165.775 196.575 166.813 195.276Z" fill="#C4C4C4"/>
<path d="M186.01 119.99L168.283 138.674L168.366 158.814L186.634 176.499L192.751 170.382C196.03 167.49 197.879 165.988 201.24 164.015C202.198 163.516 204.104 163.418 208.314 163.35C210.721 163.143 212.046 162.863 214.389 162.226C218.855 160.882 221.258 159.797 225.291 157.025C230.297 152.546 232.54 149.67 234.238 143.043C235.252 137.493 235.716 134.329 234.529 127.688C233.055 129.425 232.16 130.14 230.534 131.308C227.515 133.208 225.469 133.721 221.421 134.013H204.194C202.272 134.014 201.518 133.785 200.449 133.181C194.459 128.251 191.362 125.322 186.01 119.99Z" fill="#C4C4C4"/>
<path d="M116.501 176.499L134.228 157.815L134.145 137.675L115.877 119.99L109.76 126.107C106.481 128.999 104.632 130.5 101.271 132.473C100.313 132.973 98.4067 133.071 94.1974 133.139C91.7897 133.346 90.465 133.626 88.1221 134.263C83.6563 135.607 81.2535 136.692 77.2198 139.464C72.2143 143.943 69.9716 146.819 68.2732 153.446C67.2594 158.996 66.7949 162.159 67.9819 168.801C69.4556 167.064 70.3516 166.349 71.9767 165.18C74.9963 163.281 77.0416 162.768 81.0897 162.476H98.317C100.239 162.475 100.993 162.704 102.062 163.308C108.052 168.238 111.149 171.167 116.501 176.499Z" fill="#C4C4C4"/>
<path d="M242.415 133.724C241.692 122.007 241.044 115.375 238.219 103.114C240.514 107.527 241.661 110.671 243.533 117.534C245.923 128.548 246.442 135.26 246.381 147.88C246.269 159.468 245.341 166.898 242.95 180.947C240.429 193.656 238.031 200.535 233.224 212.674C228.745 221.529 225.54 225.911 218.187 232.355C211.806 237.194 208.305 238.877 202.167 240.439C197.268 241.165 194.423 240.991 188.877 237.873C184.989 234.097 183.227 231.317 181.72 223.761C181.31 215.94 181.688 211.667 185.945 204.708C191.375 197.707 195.229 194.699 204.222 191.735C208.011 191.167 210.032 191.186 213.084 193.03L216.593 195.33C218.259 196.021 219.124 196.185 220.615 196.31C222.91 196.012 224.254 194.993 226.695 192.505C230.897 186.528 233.06 182.737 236.302 174.572C240.605 164.111 242.259 156.076 242.415 133.724Z" fill="#C4C4C4"/>
<path d="M57.6857 171.673C58.8466 183.355 59.7421 189.958 63.0228 202.105C60.5647 197.781 59.3011 194.682 57.1741 187.893C54.3737 176.977 53.6037 170.289 53.1928 157.676C52.872 146.092 53.5212 138.632 55.3854 124.503C57.4298 111.709 59.5691 104.745 63.9193 92.4347C68.0642 83.4184 71.1033 78.9198 78.2097 72.2055C84.4053 67.1311 87.841 65.3188 93.9162 63.5287C98.7849 62.6196 101.634 62.6878 107.293 65.5961C111.32 69.2238 113.184 71.936 114.973 79.4306C115.674 87.231 115.457 91.515 111.462 98.6286C106.298 105.827 102.56 108.978 93.6835 112.275C89.9182 112.985 87.8978 113.041 84.7795 111.313L81.1862 109.145C79.4957 108.517 78.6259 108.386 77.1308 108.316C74.8484 108.699 73.5436 109.768 71.1974 112.346C67.2216 118.475 65.2023 122.345 62.2671 130.625C58.3588 141.24 57.0057 149.331 57.6857 171.673Z" fill="#C4C4C4"/>
</g>
</g>
</svg>
