<svg width="300" height="300" viewBox="0 0 300 300" fill="none" xmlns="http://www.w3.org/2000/svg">
<g id="sparkle">
<ellipse id="bg" cx="150" cy="150" rx="100" ry="130" fill="black"/>
<g id="pattern">
<path d="M124.727 24.1876C126.208 25.8097 126.867 26.9257 128.012 28.9763C129.625 31.9594 129.529 32.915 128.673 33.9088C126.143 36.6691 124.512 38.3258 121.503 41.3329C125.611 41.5837 127.676 41.766 129.588 42.4008C133.34 43.5097 134.393 44.5092 134.928 46.7739C134.922 49.8898 134.58 51.9951 133.656 56.0796L131.571 63.6563C134.375 61.6225 135.976 60.4728 139.148 58.317C141.977 56.358 143.568 55.4349 146.42 54.1981C148.029 53.6208 148.552 53.776 149.013 54.6558C149.535 56.2279 149.666 57.0061 149.776 58.317L149.318 67.165C152.115 64.5422 153.649 63.1424 156.081 61.2663C160.791 57.3509 163.003 56.2504 165.641 56.9949L173.015 60.0459C173.816 60.3943 174.547 60.7363 175.233 61.0571C177.19 61.9728 178.779 62.716 180.591 62.9444C180.283 61.318 179.135 59.4964 177.202 56.4308L176.981 56.0796C174.615 52.5253 173.224 50.5636 170.625 47.1299C169.561 45.4332 169.353 44.5316 170.065 43.0619C172.361 38.8767 173.699 36.6202 176.218 32.8409C173.543 33.6138 172.191 33.9756 170.625 34.2139C168.523 34.562 167.454 34.7015 165.696 34.8769C162.699 34.917 161.896 34.3243 161.979 32.2365C162.541 29.6477 162.916 28.226 164.167 25.983L166.447 21.7498C162.947 20.9969 159.385 20.4803 155.772 20.213C155.309 20.7006 154.759 21.0569 153.953 21.5014C152 22.5244 150.996 22.6842 149.402 22.0572C148.477 21.3451 147.895 20.8158 147.316 20.0459C139.532 20.3125 131.97 21.7355 124.727 24.1876Z" fill="#C4C4C4"/>
<path d="M205.582 41.9146C205.248 42.4291 204.985 43.1058 204.601 44.2739C204.31 45.3253 203.568 45.5513 201.586 45.5476C198.73 45.1642 197.323 44.7926 195.048 43.9343C196.385 45.5485 197.053 46.4183 198.063 47.8826C200.247 51.1196 200.521 52.0345 200.822 53.4866C200.602 55.1302 200.83 56.0053 201.586 57.5198C202.719 59.5053 203.191 60.6855 203.836 62.8691L205.28 67.7514C206.935 65.925 207.973 64.976 210.162 63.5059C212.435 62.1123 213.81 61.4322 216.488 60.4492C219.26 59.9421 220.894 59.7971 222.268 60.1456C217.241 53.3144 211.646 47.1948 205.582 41.9146Z" fill="#C4C4C4"/>
<path d="M236.769 85.3327C236.2 87.1716 235.439 88.8273 234.1 91.1691C231.578 96.439 229.86 97.5426 226.68 98.814C230.924 100.595 232.738 101.62 235.337 103.48C237.386 105.496 237.431 106.363 236.911 107.92C232.569 114.995 229.999 118.278 225.331 123.716C227.618 122.958 229.708 122.589 235.337 122.255C237.549 122.206 238.753 122.2 240.789 122.255C243.128 122.558 243.501 123.843 243.6 126.808V137.769L245.68 134.228L248.762 129.483C246.828 113.63 242.69 98.7306 236.769 85.3327Z" fill="#C4C4C4"/>
<path d="M247.243 180.441L247.228 180.363C246.043 183.139 243.981 184.727 240.499 187.411L240.136 187.691C241.16 189.061 241.428 189.662 241.782 190.668C242.291 192.906 241.813 193.582 240.802 194.665C238.5 196.162 237.203 196.716 234.886 197.525L231.359 198.74C235.736 200.218 238.099 201.048 239.588 202.58L241.171 203.485C243.724 196.142 245.768 188.435 247.243 180.441Z" fill="#C4C4C4"/>
<path d="M226.863 233.165L224.707 232.807C223.678 232.493 223.124 232.299 222.223 231.889C220.631 230.964 219.983 230.28 221.521 227.245C225.583 222.466 228.295 219.738 234.319 214.878C230.66 216.134 226.592 216.565 216.768 216.984C213.771 216.447 212.81 215.498 212.556 212.664C213.178 208.833 214.319 206.409 217.902 201.539C214.361 203.957 212.426 205.097 209.046 206.724C205.442 208.257 203.776 208.171 201.161 207.048C196.32 203.912 193.435 201.44 187.925 195.464C189.885 201.802 190.306 204.844 190.763 210.048C191.052 214.941 190.199 216.337 187.925 217.836C184.052 219.485 182.058 219.686 178.62 219.551C181.95 220.694 183.695 221.546 186.011 224.435C188.409 227.906 188.838 229.962 187.595 233.872C184.767 238.577 182.741 240.566 178.62 243.375C182.734 242.06 185.285 241.523 190.367 240.933C194.709 240.848 196.904 241.004 197.428 244.167C197.201 249.036 196.484 251.493 194.722 255.649L201.784 251.69C203.871 250.81 205.072 250.527 207.459 251.69C208.831 252.333 209.689 252.908 210.345 253.671C216.434 247.672 221.977 240.788 226.863 233.165Z" fill="#C4C4C4"/>
<path d="M120.006 274.051C118.376 271.234 118.735 269.762 120.993 267.808C123.031 266.424 124.498 266.428 127.573 267.553C143.217 272.181 148.185 273.632 154.065 275.322C144.478 269.657 139.957 266.613 135.428 261.737C132.732 258.676 131.943 256.952 133.305 253.84C135.029 250.664 138.608 248.169 149.098 242.589C143.573 244.126 140.36 244.883 133.984 245.646C130.538 246.108 128.577 246.268 124.899 245.943C122.84 245.455 122.292 244.401 122.054 241.571C122.05 236.029 122.628 232.087 125.281 222.721C117.364 226.946 113.143 228.864 106.091 231.297C102.88 232.33 101.832 231.967 101.039 229.598C100.502 225.195 100.419 222.411 100.827 216.65C96.1165 221.001 93.2073 222.424 87.7509 223.952C84.2381 224.465 82.2675 224.126 78.7506 222.169C77.9187 221.603 77.1257 221.059 76.3737 220.543C72.4523 217.853 69.643 215.925 68.2218 215.716C71.4118 220.656 72.6323 222.838 73.189 225.056C75.1344 230.258 75.781 232.176 76.3731 234.311C76.6503 236.149 76.7953 237.465 76.7991 238.569C88.4554 254.843 103.284 267.225 120.006 274.051Z" fill="#C4C4C4"/>
<path d="M51.6315 173.513C52.567 173.458 53.2409 173.789 54.0744 174.524C55.5563 176.329 57.0589 178.974 61.2296 187.329C63.9467 192.784 65.6239 195.683 68.7771 200.683C69.1602 196.388 69.4056 193.352 68.481 177.982C68.2652 172.731 68.2718 170.057 69.9376 168.787C71.576 167.874 72.9407 167.642 76.4262 167.888C79.0198 168.196 80.6127 168.468 83.6681 169.111L79.0536 163.633C76.5835 160.834 75.2909 158.996 73.4412 154.393C72.9809 152.537 73.1457 151.486 74.7437 149.582C78.3719 145.871 80.6854 143.8 85.4169 140.129C89.2358 137.389 91.4105 135.878 95.3497 133.229C87.896 133.013 84.44 132.798 79.4325 132.263C75.2501 131.774 72.8869 131.378 68.6093 130.464C66.5083 130.024 65.4962 129.665 65.6692 127.701C65.8613 125.956 67.633 123.272 72.7381 116.485C70.2645 117.166 68.0497 117.319 63.3478 117.385C60.4221 117.227 58.6566 116.68 55.3757 115.227C54.7818 114.897 54.2782 114.574 53.8314 114.238C51.3361 125.6 50 137.597 50 150C50 158.029 50.5598 165.887 51.6315 173.513Z" fill="#C4C4C4"/>
<path d="M73.6453 66.0479L74.0523 67.0653L76.0951 66.1225C77.4573 65.7921 78.2835 65.6458 79.9292 65.494C83.0266 65.444 84.663 65.578 87.3461 66.1225C83.862 62.8751 83.4574 59.5342 83.7606 52.6078C80.1461 56.7655 76.7647 61.258 73.6453 66.0479Z" fill="#C4C4C4"/>
<path d="M114.799 150.921C105.658 152.57 100.563 153.752 91.5132 156.225C106.823 136.763 113.216 128.075 116.351 120.973C116.988 118.907 116.096 118.014 113.182 116.704C109.073 115.592 104.305 115.297 93.9064 115.022C102.424 108.817 106.47 105.297 108.266 98.7222C109.039 94.8607 109.081 92.5666 108.266 88.2437L105.42 77.8298C103.953 72.2986 103.523 69.6352 103.868 66.1222C107.915 68.0476 112.624 72.8996 121.332 82.0341C124.184 84.4758 125.846 85.6949 129.352 86.5619C134.186 87.3048 136.703 87.3961 140.607 86.5619C146.768 84.8006 149.627 83.8103 152.638 82.0341C148.34 92.7788 146.965 96.94 147.334 99.3044C147.806 101.95 149.265 102.06 152.185 101.892C158.137 101.57 161.387 101.25 167.062 100.404C173.839 99.3234 178.462 98.3765 188.343 96.0056C184.105 100.893 181.782 103.654 177.735 108.619C172.819 115.133 170.513 118.681 167.062 124.854C165.639 127.927 165.796 129.368 167.062 131.646C171.135 137.042 173.489 138.998 177.735 141.801L185.756 147.363C181.508 147.605 179.315 147.814 175.795 148.334C171.122 149.251 169.41 150.042 167.58 151.827C165.841 154.09 166.785 157.61 168.938 164.44C175.628 184.328 176.386 188.408 177.412 194.194C171.484 188.74 168.245 185.524 162.729 179.317C154.267 169.812 151.349 166.869 148.757 165.022C146.679 163.997 145.429 164.083 143 165.733C137.957 170.294 136.068 173.054 132.91 178.023C133.722 173.653 134.149 171.182 134.721 166.639C135.331 159.297 135.491 155.673 134.268 153.314C133.186 151.138 132.202 150.218 128.964 149.757C122.497 149.733 119.623 150.078 114.799 150.921Z" fill="#C4C4C4"/>
<path d="M224.106 144.937C218.096 152.768 213.526 156.535 203.059 162.072C205.802 163.811 207.187 164.862 209.396 166.865C211.444 168.879 212.091 170.297 212.591 173.201L213.528 178.656L219.093 172.816C220.908 170.968 222.089 170.254 224.657 169.895C228.391 169.727 229.977 169.872 232.481 170.281C229.829 166.746 229.092 165.279 228.679 163.284C228.509 159.898 227.833 157.99 226.677 154.727L226.586 154.468C225.3 150.484 224.69 148.343 224.106 144.937Z" fill="#C4C4C4"/>
<path d="M107.052 197.232C109.999 196.969 111.578 196.703 114.238 195.953C116.507 195.194 117.588 194.469 118.989 192.36C120.158 189.91 120.678 188.5 121.304 185.904C124.125 189.827 125.871 192.027 129.831 195.953C135.047 199.788 138.213 201.642 144.144 204.602L137.018 205.698C134.484 206.089 133.109 206.498 130.744 207.526C127.896 209.73 126.484 210.618 124.41 211.363L116.736 214.53C117.018 212.427 117.059 211.193 116.736 208.805C116.047 206.233 115.282 204.995 113.142 203.201C110.691 201.254 109.35 199.993 107.052 197.232Z" fill="#C4C4C4"/>
</g>
</g>
</svg>
