<svg width="300" height="300" viewBox="0 0 300 300" fill="none" xmlns="http://www.w3.org/2000/svg">
<g id="star">
<ellipse id="bg" cx="150" cy="150" rx="100" ry="130" fill="black"/>
<g id="pattern">
<path d="M141.246 20.4913L113.274 58.7974C96.5616 60.2007 87.0467 61.0816 75.9905 62.5734C74.0546 65.3413 72.2093 68.2183 70.4608 71.1964C87.7839 68.5621 98.2318 67.2873 117.568 65.664L150.409 20.459L183.83 66.8231L228.871 70.0709C227.177 67.2498 225.395 64.5219 223.531 61.8942L187.816 59.9726L158.855 20.5027C155.938 20.1699 152.984 20 150 20C147.05 20 144.131 20.166 141.246 20.4913Z" fill="#C4C4C4"/>
<path d="M125.466 23.9413L106.552 48.2682L85.8946 50.2214C89.2062 46.6219 92.6997 43.2958 96.3546 40.2698L103.001 39.963L108.168 31.8866C109.599 31.0284 111.049 30.213 112.516 29.4415L118.882 26.4172C121.045 25.4974 123.241 24.6709 125.466 23.9413Z" fill="#C4C4C4"/>
<path d="M176.586 24.6443L194.7 48.3125L213.838 49.9313C210.472 46.2984 206.919 42.947 203.202 39.905L198.427 40.1064L193.757 33.0734C188.294 29.6115 182.551 26.7777 176.586 24.6443Z" fill="#C4C4C4"/>
<path d="M238.716 89.9525C237.557 87.064 236.317 84.2392 234.999 81.4832C224.922 103.082 219.857 112.185 212.517 123.426C223.662 142.852 229.418 153.911 238.597 174.137C216.7 178.218 204.673 179.026 183.54 178.58C170.438 201.923 163.045 211.507 150.216 225.234C136.914 209.842 129.73 200.39 118.34 179.256C87.603 177.773 74.4853 176.667 62.3171 173.943C70.7035 153.07 75.6641 141.551 87.9139 123.426C75.6772 103.861 70.7156 94.367 65.226 81.014C63.8966 83.7691 62.6444 86.5937 61.4734 89.4826C67.3968 103.484 71.8707 110.981 80.3062 123.426C66.6764 144.334 60.9834 156.773 52.3519 178.157C52.4748 178.88 52.6024 179.602 52.7346 180.321C69.9095 183.66 83.8379 184.895 114.577 185.91C125.745 206.92 133.464 218.265 150.216 237.597C164.774 221.895 172.934 211.368 187.48 185.636C206.714 185.875 219.011 185.336 247.182 180.771C247.403 179.59 247.611 178.402 247.806 177.208C240.146 160.329 233.874 147.938 220.05 123.426C227.966 111.012 232.883 102.686 238.716 89.9525Z" fill="#C4C4C4"/>
<path d="M246.183 114.304C248.331 124.104 249.617 134.376 249.927 144.974C247.107 138.723 244.594 133.425 240.843 125.65C242.881 121.677 244.206 118.932 246.183 114.304Z" fill="#C4C4C4"/>
<path d="M242.454 199.632C220.988 201.226 210.347 202.451 196.387 204.863C177.942 227.076 170.476 237.132 160.504 252.285C158.846 255.014 158.495 256.59 158.475 259.449L159.788 279.385C163.258 278.947 166.676 278.278 170.032 277.391C169.935 276.925 169.837 276.456 169.738 275.985L169.737 275.984C167.932 267.388 165.957 257.987 170.267 252.285C181.608 236.741 188.303 228.197 200.825 213.231C215.287 210.786 224.464 209.67 239.364 208.406C240.474 205.54 241.505 202.614 242.454 199.632Z" fill="#C4C4C4"/>
<path d="M234.614 219.316C227.996 219.962 223.566 220.785 217.12 222.421C210.879 224.007 207.671 225.763 202.517 230.623C190.303 242.676 186.999 246.956 184.372 252.31C182.725 257.142 183.476 259.068 185.615 262.128C188.3 264.642 190.254 265.975 193.106 267.335C197.118 264.84 200.981 262.008 204.675 258.866C204.367 258.703 204.026 258.509 203.636 258.276C202.175 256.937 201.539 256.028 201.461 253.491C202.344 250.32 203.582 248.202 207.986 243.424C211.853 239.479 214.152 237.841 218.55 236.278C221.374 235.459 223.48 235.001 225.832 234.748C229.04 229.902 231.977 224.745 234.614 219.316Z" fill="#C4C4C4"/>
<path d="M139.307 279.265L140.56 263.833C140.632 257.815 140.232 255.555 138.886 253.158C128.361 236.796 121.393 227.035 105.709 207.841C86.6875 203.699 75.1282 202.05 58.037 201.147C59.0771 204.303 60.2106 207.395 61.4329 210.417C76.6604 212.098 86.0609 213.464 100.895 216.005C112.505 229.964 118.9 238.031 129.571 253.995C131.576 258.449 131.542 262.134 130.618 269.589C130.172 272.912 129.785 275.122 129.263 277.201C132.554 278.103 135.905 278.795 139.307 279.265Z" fill="#C4C4C4"/>
<path d="M109.286 268.773C112.637 267.117 114.608 265.482 117.179 262.22C118.518 258.569 118.233 256.058 114.222 250.018C109.615 243.424 105.832 239.276 97.2801 231.199C92.7154 227.391 89.4892 225.918 82.919 224.112C76.2279 222.463 71.8988 221.786 66.416 221.393C69.1801 226.851 72.252 232.022 75.5997 236.865C81.1319 237.446 84.3404 238.569 88.9732 241.617C94.3785 246.06 96.6809 248.901 99.5797 254.571C100.33 258.008 99.6869 259.079 97.7963 260.39L97.4182 260.599C101.213 263.654 105.176 266.389 109.286 268.773Z" fill="#C4C4C4"/>
<path d="M50.014 147.802C53.6529 139.801 56.3472 134.099 60.4383 125.911C57.9516 120.967 56.3641 117.438 54.2651 112.32C51.6467 123.578 50.1711 135.482 50.014 147.802Z" fill="#C4C4C4"/>
<path fill-rule="evenodd" clip-rule="evenodd" d="M84.4255 161.435C98.99 138.849 105.375 129.843 111.75 124.084C105.236 118.178 99.1731 109.577 84.3621 85.4198C101.618 85.0001 111.295 84.8712 128.551 84.9126L150.17 48.0146L171.979 84.9126L216.421 85.293C199.691 111.997 194.118 119.563 188.843 123.966C194.976 129.708 200.905 138.038 216.104 162.576L171.598 161.118L150.275 198.776L128.678 161.878L84.4255 161.435ZM110.297 100.505C123.186 100.737 129.409 101.387 138.676 103.497C141.52 93.8794 143.805 88.1488 150.817 76.4958C156.863 87.0734 159.427 92.9874 162.12 103.497C174.217 100.811 180.646 100.011 191.083 100.635C183.039 113.776 179.089 117.923 172.385 123.353C181.426 131.796 185.646 136.827 190.839 146.619C178.9 146.84 172.689 146.154 162.579 143.33C159.767 154.323 156.882 160.234 150.275 170.494C146.149 164.651 143.747 159.488 139.13 143.33C128.164 146.212 121.745 146.792 109.955 146.558C116.988 137.084 121.175 131.938 130.603 124.084C122.401 116.991 117.972 111.721 110.297 100.505Z" fill="#C4C4C4"/>
</g>
</g>
</svg>
