<svg width="300" height="300" viewBox="0 0 300 300" fill="none" xmlns="http://www.w3.org/2000/svg">
<g id="vertical-stripe">
<ellipse id="bg" cx="150" cy="150" rx="100" ry="130" fill="black"/>
<g id="pattern">
<path d="M161.445 20.8421C165.604 21.4581 169.685 22.4057 173.672 23.664C178.085 31.3636 179.903 36.2604 182.849 44.1916L183.046 44.7243C186.798 55.1925 188.574 61.4666 191.415 73.0634C194.565 87.2471 195.621 94.9272 197.184 108.503C199.098 129.165 199.117 140.964 198.516 162.138C197.734 180.76 196.818 190.501 194.775 207.278C192.826 222.278 191.274 230.149 188.118 243.732C186.514 250.948 185.321 255.291 182.856 263.386C181.477 267.981 180.476 270.947 179.182 274.377C173.938 276.454 168.512 277.986 162.942 278.921C164.342 274.122 165.405 270.292 167.07 263.386L167.311 262.235C169.211 253.177 170.348 247.757 171.825 237.075C174.742 216.523 176.176 204.294 177.784 179.129C178.514 161.072 178.62 150.865 178.101 132.468C177.226 110.689 176.455 98.6409 173.6 78.0085C171.395 63.3285 170.021 55.0626 166.69 40.0962C164.653 31.5399 163.447 26.5424 161.445 20.8421Z" fill="#C4C4C4"/>
<path d="M145.252 20.1439C143.099 26.1423 141.879 31.1925 139.76 40.0962C136.428 55.0626 135.054 63.3285 132.849 78.0085C129.995 98.6409 129.224 110.689 128.348 132.468C127.83 150.865 127.935 161.072 128.665 179.129C130.273 204.294 131.708 216.523 134.624 237.075C136.101 247.757 137.238 253.177 139.138 262.235L139.379 263.386C141.139 270.685 142.226 274.547 143.75 279.75C138.459 279.326 133.279 278.367 128.242 276.914C126.425 272.258 125.298 269.066 123.593 263.386C121.128 255.291 119.936 250.948 118.331 243.732C115.175 230.149 113.623 222.278 111.674 207.278C109.631 190.501 108.715 180.76 107.934 162.138C107.332 140.964 107.352 129.165 109.265 108.503C110.828 94.9272 111.884 87.2471 115.034 73.0634C117.875 61.4666 119.651 55.1925 123.403 44.7243L123.601 44.1917C126.793 35.5963 128.661 30.5647 133.942 21.6671C137.648 20.8895 141.422 20.3767 145.252 20.1439Z" fill="#C4C4C4"/>
<path d="M90.1233 254.13C91.2961 255.079 92.5483 255.993 94.0407 257.077C91.3082 253.518 89.7584 251.476 86.3652 246.17C86.0615 245.631 85.765 245.107 85.4751 244.594C80.4941 235.783 77.4418 230.384 72.8994 217.42C69.4012 206.607 67.6474 199.761 64.8872 186.045C62.6687 174.109 61.6358 166.597 60.7801 149.35C60.6366 136.399 61.1392 128.526 64.4159 111.983C66.9659 100.214 69.0734 92.6946 74.7846 76.6351C77.0611 70.0308 79.8825 63.9172 86.4325 50.6461C86.0418 50.7258 85.6598 50.8061 85.2864 50.8879C63.6978 74.7335 50 110.287 50 150C50 192.603 65.7643 230.42 90.1233 254.13Z" fill="#C4C4C4"/>
<path d="M214.66 50.8291C236.28 74.675 250 110.255 250 150C250 193.97 233.208 232.842 207.506 256.368C209.914 253.224 211.476 251.114 214.637 246.17C214.822 245.842 215.004 245.52 215.184 245.203L215.527 244.594C220.509 235.783 223.561 230.384 228.103 217.42C231.601 206.607 233.355 199.761 236.115 186.045C238.334 174.109 239.367 166.597 240.222 149.35C240.366 136.399 239.863 128.526 236.587 111.983C234.037 100.214 231.929 92.6946 226.218 76.6351C223.952 70.0613 221.146 63.9735 214.66 50.8291Z" fill="#C4C4C4"/>
</g>
</g>
</svg>
