<svg width="300" height="300" viewBox="0 0 300 300" fill="none" xmlns="http://www.w3.org/2000/svg">
<g id="vertical-spot">
<ellipse id="bg" cx="150" cy="150" rx="100" ry="130" fill="black"/>
<g id="pattern">
<path d="M234.043 220.478C244.139 200.174 250 175.977 250 150C250 133.763 247.71 118.222 243.528 103.892C243.327 103.324 243.125 102.753 242.919 102.178C242.944 120.342 242.739 129.144 242.375 144.777L242.373 144.888L241.602 180.56C240.574 193.106 239.357 200.44 235.575 214.271C235.02 216.663 234.523 218.675 234.043 220.478Z" fill="#C4C4C4"/>
<path d="M140.318 279.399C134.194 270.604 130.834 265.09 125.53 255.441C121.593 246.909 119.197 240.625 113.367 216.936C111.032 205.38 109.514 198.87 106.317 187.186C106.084 186.609 105.86 186.047 105.641 185.5C102.657 178.034 100.79 173.363 95.7804 170.917C92.4718 169.729 91.1151 169.836 89.6599 171.537C87.2028 174.99 87.0681 180.733 87.3357 192.532C88.7561 205.399 90.1423 213.033 94.3084 227.86C100.168 245.101 104.242 252.403 112.205 263.343C116.28 268.344 118.802 271.198 122.383 274.979C128.164 277.134 134.16 278.629 140.318 279.399Z" fill="#C4C4C4"/>
<path d="M69.965 227.952C69.9971 227.525 70.0279 227.073 70.0595 226.575C70.0511 220.19 69.5399 216.447 67.9203 209.544C65.773 200.115 64.1746 194.509 60.8444 184.12C57.4375 173.783 56.2371 168.229 55.9078 158.943C55.9495 148.28 56.2043 142.22 56.9774 131.298L59.4458 95.8369L57.6934 99.9085C52.7374 115.325 50 132.247 50 150C50 179.244 57.4279 206.233 69.965 227.952Z" fill="#C4C4C4"/>
<path d="M89.5842 46.3987L86.0687 59.582C79.9428 81.5168 78.9464 90.8562 77.6652 106.912C77.7951 115.733 78.7105 119.176 81.239 123.719C83.9019 126.629 85.6099 127.616 89.2562 127.583C92.2568 126.704 93.6008 125.133 95.3415 120.242C95.3694 121.016 97.0899 113.166 106.548 68.1246C111.416 49.764 114.39 39.838 120.76 25.6455C109.372 30.1653 98.8462 37.2566 89.5842 46.3987Z" fill="#C4C4C4"/>
<path d="M164.674 21.3898C168.205 26.0933 170.218 29.192 173.24 34.6219C176.894 41.729 178.936 46.1434 182.548 55.736L191.024 79.2407C194.013 85.9897 195.853 88.7517 199.587 90.862C203.35 91.555 205.141 91.2062 207.713 89.2018C209.984 86.1952 210.5 81.4407 209.81 74.6097C209.279 69.9436 207.418 63.381 202.82 50.6681C199.88 43.61 198.01 39.6938 194.62 33.6269C185.364 27.6173 175.29 23.4192 164.674 21.3898Z" fill="#C4C4C4"/>
<path d="M142.212 58.8102C139.173 56.7872 137.566 56.9291 134.913 59.8996C129.558 68.5487 128.638 83.3454 128.812 118.4C129.452 139.302 131.175 153.897 135.24 182.021C138.998 202.378 140.876 208.209 143.955 212.088C146.685 214.158 147.756 213.377 149.511 211.326C153.422 205.078 155.657 192.457 156.265 144.437C155.168 118.555 153.698 104.054 149.402 78.2015C147.081 67.077 145.478 63.0317 142.212 58.8102Z" fill="#C4C4C4"/>
<path d="M198.167 121.85C195.443 120.413 194.228 120.63 192.605 122.303C189.886 126.216 189.064 130.607 188.708 140.473L188.176 178.593C187.657 196.279 186.909 204.262 184.843 215.316L178.827 247.269C176.97 257.543 177.097 259.576 177.308 262.937L177.339 263.44C177.871 265.94 178.754 266.243 180.832 265.833C182.013 265.217 182.716 264.789 184.261 263.44C189.89 257.9 193.509 251.482 201.725 229.288C205.494 217.018 206.939 209.726 208.84 196.299C210.546 181.006 210.878 172.016 209.357 154.579C208.518 145.643 207.891 140.586 204.118 130.776C202.046 126.172 200.876 123.63 198.167 121.85Z" fill="#C4C4C4"/>
</g>
</g>
</svg>
