<svg width="300" height="300" viewBox="0 0 300 300" fill="none" xmlns="http://www.w3.org/2000/svg">
<g id="wavy-stripe">
<ellipse id="bg" cx="150" cy="150" rx="100" ry="130" fill="black"/>
<g id="pattern">
<path d="M249.423 164.045C249.804 159.431 250 154.745 250 150C250 144.321 249.72 138.727 249.177 133.24L245.005 133.748C236.719 135.144 232.286 136.654 224.845 140.874C215.895 146.477 210.578 149.334 200.543 153.908C187.777 158.264 180.614 159.419 167.836 160.425C145.031 161.069 139.862 159.224 131.536 155.674C116.801 148.599 109.503 142.809 97.4891 130.581C89.8314 122.18 85.7424 116.576 78.5472 106.157C73.1754 97.741 69.7826 92.9283 63.3164 85.1392C59.4895 93.7641 56.4023 103.014 54.1677 112.741C55.4753 113.776 56.5114 115.051 58.6308 118.46C61.0351 122.37 62.2068 124.435 64.1733 127.962C69.166 137.362 72.2109 142.531 77.8772 151.655C85.6887 162.613 90.0762 167.8 97.9155 174.068C108.609 182.002 115.499 185.3 130.257 188.016C142.822 189.46 150.486 189.638 165.704 188.381C177.312 187.344 185.096 185.523 201.518 179.793L228.134 169.257C228.518 169.123 228.894 168.993 229.263 168.865C236.468 166.361 241.014 164.782 249.423 164.045Z" fill="#C4C4C4"/>
<path d="M243.102 197.541C232.255 198.516 227.486 199.671 221.609 202.55C204.264 211.051 198.154 213.752 192.977 215.303C177.375 220.167 167.987 220.002 151.18 219.417C129.09 217.562 118.464 214.209 103.13 203.455C91.8634 194.437 85.52 186.971 74.3329 169.31C68.5025 159.193 64.7596 154.142 57.7129 145.615C54.4015 142.587 52.38 140.975 50.3004 139.848C50.1014 143.198 50 146.584 50 150C50 161.839 51.2174 173.309 53.4984 184.209C54.2361 185.01 54.974 185.877 55.8206 186.918C59.7707 191.949 61.8989 194.934 65.5293 200.576C75.8168 215.578 80.5165 220.896 88.2377 228.468C99.1062 237.996 105.65 242.285 118.763 246.569C130.242 249.291 138.065 249.364 153.401 248.05C162.543 247.025 169.815 245.159 186.148 239.822C190.933 238.376 198.484 235.203 215.356 227.892C222.404 224.903 226.818 223.153 233.163 222.218C237.12 214.532 240.463 206.267 243.102 197.541Z" fill="#C4C4C4"/>
<path d="M220.174 242.617C216.369 243.134 212.74 244.218 205.992 246.962C201.713 248.621 196.216 252.278 187.657 257.974C186.86 258.504 186.036 259.052 185.185 259.618C172.42 267.142 167.502 269.307 160.873 271.202C149.168 273.819 143.104 273.931 132.63 273.204C124.255 272.331 119.024 270.734 108.319 265.052C101.249 260.483 97.6574 257.331 91.5869 251.181L74.9267 234.235C74.0473 233.466 73.248 232.78 72.4901 232.146C90.8275 261.352 118.739 280 150 280C177.342 280 202.121 265.735 220.174 242.617Z" fill="#C4C4C4"/>
<path d="M72.3415 68.0916C72.8196 70.6237 74.3468 73.8875 76.9641 79.2804C83.5316 90.885 87.4017 95.7667 94.4875 102.894C104.95 111.964 111.715 115.507 125.06 119.609C137.526 122.689 146.191 123.45 167.316 121.536C173.478 120.794 179.889 118.98 197.019 113.085C203.965 110.328 208.791 107.864 219.078 101.899C226.104 97.7327 230.012 95.7549 236.602 95.064L237.076 95.0535C238.511 95.0215 239.67 94.9957 240.655 95.0552C237.596 86.5385 233.847 78.5242 229.502 71.1335C222.731 72.5647 219.867 73.6133 216.841 75.9249C211.571 79.7734 208.52 81.8224 202.984 85.3701C196.245 88.8062 192.6 90.0482 186.206 91.7084C167.456 95.2355 158.559 95.4226 144.324 93.9455C125.961 90.1656 116.861 85.1688 102.131 72.6314C92.0289 62.5924 87.9912 57.6327 84.8062 51.4216C80.2807 56.4842 76.1077 62.0645 72.3415 68.0916Z" fill="#C4C4C4"/>
<path d="M94.6183 41.7403C97.8565 45.6698 100.405 48.2297 105.33 52.1133C116.505 59.9038 123.542 62.6375 136.964 65.6875C152.412 67.2722 162.275 66.9236 183.116 62.9726C194.485 60.4712 201.594 57.9833 214.856 51.0459C209.843 45.4871 204.401 40.5609 198.605 36.3623L198.338 36.2715C189.792 42.2805 184.568 44.3251 174.833 46.6805C158.116 49.5576 151.009 49.3913 140.333 47.5199C128.3 45.0599 121.421 40.4393 110.476 30.5486C104.911 33.6647 99.6068 37.4189 94.6183 41.7403Z" fill="#C4C4C4"/>
</g>
</g>
</svg>
