<svg width="300" height="300" viewBox="0 0 300 300" fill="none" xmlns="http://www.w3.org/2000/svg">
<g id="zebra">
<ellipse id="bg" cx="150" cy="150" rx="100" ry="130" fill="black"/>
<g id="pattern">
<path d="M76.6661 61.617C79.131 60.8568 82.3802 60.0981 89.4053 58.7635C98.8618 56.3711 102.58 54.7088 106.776 51.2523L120.992 37.7062L137.315 21.0359C141.47 20.3523 145.703 20 150 20C160.333 20 170.301 22.0375 179.677 25.8204C175.575 26.5446 172.882 27.3104 167.882 29.1469C162.212 31.7205 160.234 33.1503 157.09 35.6967C153.117 39.64 151.19 41.2165 148.457 42.5441L124.416 55.3459C116.049 59.6943 111.31 62.5588 102.832 68.3709C94.3095 74.6958 89.7465 78.6716 81.6196 85.7872L67.5525 97.8447C61.4936 102.658 58.058 105.218 55.7615 106.405C57.6067 99.6649 59.8676 93.1809 62.5041 87.0054L66.8082 84.2986L77.0794 75.6649L66.9888 77.4885C69.898 71.8711 73.1357 66.5651 76.6661 61.617Z" fill="#C4C4C4"/>
<path d="M50.3336 139.304C50.7367 132.869 51.5004 126.567 52.5982 120.431C53.2949 120.112 54.0423 119.79 54.9965 119.411C57.0217 118.51 59.1461 118.872 63.3803 119.756C66.3398 120.393 67.6447 120.573 69.7527 120.782C73.3329 120.947 75.6624 120.779 80.2833 120.08L97.4022 118.459C102.53 117.699 105.678 116.748 111.875 113.977C114.992 112.501 116.555 111.927 119.111 111.223C125.128 109.04 129.126 108.462 137.526 108.631C142.929 109.07 145.99 109.386 151.621 110.305C156.382 111.15 159.164 111.078 164.42 109.549C166.609 108.895 169.917 107.335 177.219 103.609C183.44 100.21 186.661 98.8788 191.043 99.4504L203.14 100.044C210.381 100.492 214.462 100.828 221.825 101.773C229.335 102.638 233.463 103 240.738 103.517C241.869 103.581 242.644 103.6 243.437 103.582C245.069 109.132 246.417 114.863 247.458 120.747C245.437 120.497 243.801 120.45 241.18 120.415C229.866 119.838 225.545 119.508 223.913 118.902C221.63 118.061 220.218 117.622 217.125 116.983C214.605 116.39 213.049 116.14 210.004 115.877C206.238 115.753 204.245 115.856 200.706 116.061C196.527 116.371 194.175 116.666 189.933 117.426C184.652 118.377 182.12 119.034 177.683 120.23C172.571 121.992 169.725 122.514 164.659 123.182C157.167 124.135 152.995 124.625 145.584 125.433C124.823 127.213 116.185 128.35 109.337 130.776C100.521 133.74 95.8348 135.232 88.2504 137.374C80.2893 140.015 75.4454 140.202 66.323 138.861L60.7603 137.826C57.7946 137.147 56.1473 137.293 53.2571 138.344C52.0749 138.715 51.1261 139.023 50.3336 139.304Z" fill="#C4C4C4"/>
<path d="M55.7651 193.608C53.0025 183.519 51.1713 172.857 50.406 161.794C52.0074 162.188 53.1068 162.087 54.796 161.522L68.5701 157.996L77.3856 156.013L83.4462 155.241C87.8373 154.262 90.1952 153.653 93.9697 152.321L104.052 148.63C108.001 147.275 110.741 146.636 117.055 145.82C119.889 145.756 121.508 145.763 124.506 145.935C128.684 145.9 132.267 145.273 141.254 142.886L123.867 156.037C108.396 166.522 101.439 171.052 95.5976 173.982C88.394 177.52 84.4386 177.946 77.3856 177.904L67.2831 177.048C64.8441 176.6 63.4371 176.406 60.8357 176.191C58.9234 176.019 57.9232 176.048 56.1918 176.191C59.9571 181.219 63.006 183.447 69.312 186.877C75.5323 189.245 78.9744 190.156 85.0022 190.799C94.2358 191.365 98.2125 191.038 101.91 188.635C107.775 184.789 110.837 182.918 115.841 180.159L129.343 172.353L139.434 166.577C142.235 164.882 143.744 163.881 145.464 161.278C148.879 157.107 150.929 154.904 155.087 151.472C160.504 147.179 163.749 145.334 170.009 143.31C176.963 141.231 180.781 140.442 187.55 139.23C195.806 138.057 200.44 137.456 208.807 137.341C215.434 137.372 218.957 137.537 224.886 138.133L206.919 146.477C198.312 150.232 193.769 152.339 186.028 156.101C177.876 159.921 173.73 163.303 167.025 171.571C164.609 174.745 163.412 176.461 161.543 179.428C158.965 184.031 157.085 186.034 152.773 188.32L133.77 198.187C128.807 200.819 127.106 203.12 124.999 207.932C121.927 213.553 118.589 217.06 110.564 223.768C103.004 229.465 97.8303 230.691 88.1508 231.929C83.162 232.376 80.5645 232.487 76.1522 232.538L72.6638 232.421C68.0989 225.191 64.1222 217.309 60.8287 208.899C63.4966 209.421 65.9299 209.613 69.2603 209.77C78.8465 210.472 83.2746 210.49 88.6218 209.51C95.3481 207.581 99.0119 206.34 104.475 202.537L85.5465 201.974C75.0269 201.603 70.0136 200.418 62.2866 196.949C59.6223 195.716 57.6181 194.701 55.7651 193.608Z" fill="#C4C4C4"/>
<path d="M96.0933 259.513C91.0708 255.326 86.3552 250.572 82.0003 245.319C86.9381 245.436 91.2228 245.052 97.9897 243.912C106.516 242.491 111.508 241.048 121.699 234.558C125.833 231.55 128.489 228.938 134.602 220.526C136.352 217.055 137.798 215.568 141.054 213.59L159.763 202.461L170.166 196.333C175.517 193.276 178.212 191.319 181.537 186.655L191.456 175.365C196.156 170.325 198.886 167.529 205.004 162.946C212.315 158.045 216.13 156.031 221.052 157.301C226.917 159.255 230.577 160.128 237.826 161.252C242.42 161.887 245.338 162.208 249.54 162.551C249.153 167.796 248.527 172.95 247.676 177.994C243.737 177.475 240.63 177.345 235.731 177.264C227.353 177.38 223.3 178.492 216.683 181.48C208.273 185.66 204.363 188.428 198.991 194.166C206.584 192.272 211.387 191.638 221.088 191.38C232.2 191.274 237.745 191.896 244.085 194.151C243.937 194.683 243.787 195.213 243.634 195.742C237.561 198.063 233.441 199.168 226.621 200.753C231.525 202.027 235.108 202.654 241.302 203.109C239.967 206.98 238.491 210.751 236.883 214.41C235.485 214.264 234.072 214.184 232.222 214.08L232.192 214.079C226.425 213.548 223.82 213.738 219.211 214.074L219.144 214.079C209.8 215.243 202.774 216.967 190.081 220.139C182.529 221.51 178.127 221.983 169.973 222.301C161.4 223.014 157.271 223.892 151.66 226.705C158.678 226.844 162.845 227.374 170.748 229.234C175.315 230.291 178.002 230.712 182.902 231.314C186.205 231.616 187.998 231.65 191.182 231.681H200.399C203.231 231.569 205.373 232.105 210.351 234.332C214.784 235.834 217.33 236.424 222.016 237.065C222.803 237.181 223.469 237.27 224.074 237.334C219.807 243.446 215.099 249.028 210.016 253.994L204.804 252.033C202.001 251.029 200.308 250.6 197.218 249.913C190.338 248.879 188.893 249.414 186.655 250.524C182.692 252.556 180.212 254.892 175.765 259.171C170.452 263.787 167.274 265.951 160.837 268.185C156.749 269.067 154.299 269.459 149.784 270.061C143.733 271.108 140.684 271.983 135.835 274.017C132.125 275.438 130.248 276.184 128.395 276.958C123.278 275.493 118.308 273.519 113.518 271.078C115.398 270.497 116.967 269.896 119.358 268.837C127.177 264.915 131.574 262.158 139.465 255.133C143.233 251.54 145.336 249.44 149.037 245.193C151.004 242.879 151.99 241.428 153.572 238.614C148.224 238.389 145.131 238.813 139.465 240.649C132.786 242.897 128.956 245.314 122.054 250.573C114.103 254.775 109.634 256.395 101.638 258.3C99.3787 258.738 97.8203 259.064 96.0933 259.513Z" fill="#C4C4C4"/>
<path d="M248.723 129.166C249.227 133.232 249.585 137.361 249.792 141.544C240.678 140.88 238.086 140.282 236.505 139.078C241.156 136.411 243.959 134.475 248.723 129.166Z" fill="#C4C4C4"/>
<path d="M226.416 66.1417C230.319 72.1467 233.811 78.6181 236.835 85.4823C230.61 85.2944 227.847 85.033 223.424 84.5355C212.642 82.9051 207.052 82.0071 198.513 80.4548L184.87 78.2012C181.977 77.6241 180.522 77.7867 178.171 78.7494L161.3 85.6927L153.564 88.5553C149.641 89.9723 147.114 90.3034 142.416 90.6205C132.226 91.151 126.642 91.1681 116.877 90.7273L144.185 70.3443C157.296 60.739 163.489 56.3914 171.105 51.7069C178.062 47.9775 181.379 46.7235 186.454 45.6771C189.472 45.0328 194.362 44.4503 206.885 43.0686C211.737 47.4388 216.277 52.3528 220.453 57.7426C218.728 57.7598 217.1 57.7739 215.545 57.7874L215.543 57.7874L215.541 57.7875C205.902 57.8711 199.077 57.9304 189.56 58.5284C187.323 58.8444 181.795 63.4542 179.511 66.1417C186.01 65.1578 189.136 64.728 192.179 64.5582C198.221 64.2382 201.697 64.3537 208.015 64.9236C212.158 65.4945 215.274 65.7485 221.536 66.1417H226.416Z" fill="#C4C4C4"/>
</g>
</g>
</svg>
