<svg width="100" height="100" viewBox="0 0 100 100" fill="none" xmlns="http://www.w3.org/2000/svg">
<g id="Frame 5">
<path id="Vector 12" d="M33.5181 11.0231C25.8491 23.517 24.5581 31.4453 24.9006 46.3983C22.3318 48.502 21.2031 49.7767 19.4752 52.1377C17.7166 54.8858 17.1222 56.4183 16.4589 59.1437C16.0423 61.3737 15.9905 62.6327 16.1953 64.8924C16.5923 67.8027 17.1797 69.2718 18.3853 71.7311C19.7417 74.1182 20.6491 75.2824 22.4662 77.1249C24.4241 78.9752 25.6662 80.0013 28.4532 81.6874C30.9585 83.0718 32.4923 83.8077 35.8495 84.9268C38.0262 85.5891 39.4117 85.9402 42.7693 86.4578C45.6637 86.7924 47.3131 86.8758 50.3076 86.8076C53.1037 86.6541 54.6658 86.4799 57.4352 85.9356C60.9342 85.1564 62.8007 84.5385 66.0178 83.0967C68.9561 81.6529 70.5858 80.6678 73.333 78.3974C75.2881 76.6273 76.2358 75.5858 77.6217 73.627C78.4111 72.4369 78.8153 71.7192 79.467 70.342C80.3204 68.2765 80.659 67.0858 80.964 64.8924C81.1148 63.3199 81.1433 62.433 80.964 60.8302C80.5132 57.7951 79.9929 56.1897 78.5377 53.4992C76.5534 50.3134 75.1636 48.7859 72.2985 46.423C72.8828 32.4761 71.6567 24.7015 63.6776 11.0023C55.0185 21.4245 52.0246 27.5849 48.6044 38.8997C44.9096 26.8794 41.5364 20.8115 33.5181 11.0231Z" stroke="black"/>
</g>
</svg>
