<svg width="100" height="100" viewBox="0 0 100 100" fill="none" xmlns="http://www.w3.org/2000/svg">
<g id="Frame 1">
<g id="ears">
<path d="M33.5242 11.0095C41.885 21.205 45.0448 27.3546 48.6002 38.9144L24.904 46.5875C24.498 32.162 25.6255 24.2653 33.5242 11.0095Z" fill="#C18787"/>
<path d="M63.6583 11.0095C55.2975 21.205 52.1377 27.3546 48.5823 38.9144L72.2785 46.5875C72.6845 32.162 71.557 24.2653 63.6583 11.0095Z" fill="#C18787"/>
</g>
<ellipse id="face" cx="48.5823" cy="62.8352" rx="32.5" ry="24" fill="white"/>
<g id="mouth">
<path d="M42.7478 54.8387C45.277 52.7662 46.5524 51.1695 48.5912 47.602V82.0396C46.0803 82.0265 44.8247 81.9391 42.8366 81.6413C39.5653 81.0513 38.0375 80.5602 35.8245 79.3988C33.476 78.047 32.4918 77.0031 31.3398 74.5993L28.2322 75.1268C25.4305 75.5926 23.6951 76.0327 20.3063 77.1368C17.4862 78.1377 16.1123 78.9357 13.9485 80.6863C14.6507 78.9829 15.1657 78.0277 16.6292 76.3245C18.7053 74.4491 19.9999 73.4784 22.5815 71.9153C25.4082 70.3545 27.0498 69.6177 30.2249 68.9093C30.1567 68.6866 30.1293 68.5568 30.1302 68.3034C23.7355 65.2047 14.7834 62.7628 9.6243 62.5907C11.5485 61.6399 12.6354 61.1103 16.0988 60.8267C18.8669 60.712 20.4623 60.6788 23.5956 60.8267C27.1412 61.1019 29.0926 61.3624 32.4955 62.0695C34.2728 60.1087 35.4665 59.2091 37.8675 57.8801C39.7853 56.7962 40.8633 56.2126 42.7478 54.8387Z" fill="#C18787"/>
<path d="M54.4347 54.8387C51.9055 52.7662 50.6301 51.1695 48.5912 47.602V82.0396C51.1022 82.0265 52.3578 81.9391 54.3459 81.6413C57.6172 81.0513 59.145 80.5602 61.358 79.3987C63.7064 78.047 64.6907 77.0031 65.8427 74.5993L68.9503 75.1268C71.752 75.5926 73.4873 76.0327 76.8762 77.1367C79.6963 78.1377 81.0702 78.9356 83.234 80.6863C82.5318 78.9829 82.0168 78.0277 80.5533 76.3245C78.4772 74.4491 77.1825 73.4784 74.601 71.9153C71.7743 70.3545 70.1327 69.6177 66.9576 68.9093C67.0258 68.6866 67.0532 68.5568 67.0523 68.3034C73.447 65.2047 82.3991 62.7628 87.5582 62.5906C85.634 61.6398 84.5471 61.1103 81.0837 60.8267C78.3156 60.7119 76.7202 60.6788 73.5869 60.8267C70.0413 61.1019 68.0899 61.3624 64.687 62.0695C62.9097 60.1086 61.716 59.2091 59.315 57.8801C57.3972 56.7962 56.3192 56.2126 54.4347 54.8387Z" fill="#C18787"/>
</g>
</g>
</svg>
