<svg width="100" height="100" viewBox="0 0 100 100" fill="none" xmlns="http://www.w3.org/2000/svg">
<path d="M25.6753 48.349L26.171 47.9287L26.325 47.2972L34.1456 15.2125L46.698 38.3786L49.1815 42.9621L50.4009 37.8936L55.7351 15.722L70.4836 47.2921L70.6741 47.7001L71.0212 47.987C72.9001 49.5405 74.0905 50.7256 75.0235 51.8998C75.9435 53.0578 76.6626 54.2663 77.5534 55.9398C78.3956 57.9324 78.6994 59.0175 78.9845 61.067C79.3538 64.5687 78.5589 67.7984 77.2403 70.3647C76.763 71.2615 76.4578 71.7548 75.8442 72.6837C75.0943 73.7544 74.5752 74.3335 74.0359 74.935C73.9418 75.0399 73.8472 75.1454 73.7506 75.2544C72.0108 77.0187 70.9727 77.7814 68.9785 79.1664C65.3375 81.4372 63.2015 82.3075 59.1001 83.4799C54.8047 84.4934 52.4264 84.8285 48.0347 84.8398C42.4724 84.6187 39.4624 84.1269 34.0613 82.1881C31.7451 81.2269 30.5181 80.6158 28.3936 79.3096C26.1966 77.8429 25.1266 76.9819 23.4089 75.2142L23.3084 75.1108L23.2485 75.0647C23.2437 75.0598 23.2381 75.0541 23.2317 75.0476C23.1834 74.9983 23.1141 74.9243 23.0254 74.826C22.8492 74.6307 22.6279 74.3742 22.3981 74.098C21.905 73.5055 21.4993 72.9735 21.378 72.7747L21.3592 72.7438L21.3392 72.7136C19.844 70.4509 19.2437 69.1769 18.5288 66.6199C18.2632 65.3852 18.1604 64.7175 18.0945 63.4237C18.058 62.6509 18.0797 62.0216 18.181 61.0859C18.6317 58.1261 19.086 56.6016 20.7943 53.7905C22.3684 51.4403 23.3993 50.2787 25.6753 48.349Z" stroke="black" stroke-width="4"/>
</svg>
