<svg width="100" height="100" viewBox="0 0 100 100" fill="none" xmlns="http://www.w3.org/2000/svg">
<mask id="path-1-inside-1" fill="white">
<path d="M33.4316 9.69655L24.3819 46.8235C21.9547 48.8815 20.8001 50.1839 19.1082 52.714C17.2165 55.8196 16.6859 57.6049 16.1974 60.8271C16.0827 61.872 16.0538 62.6149 16.0969 63.5218C16.1703 64.9657 16.2931 65.7428 16.5863 67.0997C17.3672 69.9069 18.0561 71.3729 19.6706 73.8163C20.0872 74.499 21.6598 76.3658 21.9746 76.608C23.814 78.501 24.9993 79.4497 27.3142 80.9938C29.5704 82.3823 30.8956 83.0411 33.3397 84.054C38.9974 86.0883 42.2145 86.6119 47.9972 86.8399C52.606 86.8302 55.1409 86.4706 59.6048 85.4158C63.9015 84.1894 66.2174 83.2491 70.0789 80.8371C72.1601 79.3923 73.3146 78.5493 75.2129 76.6199C75.8542 75.8942 76.5126 75.2185 77.4982 73.8084C78.1467 72.8271 78.4888 72.2764 79.0125 71.2919C80.4973 68.4078 81.3936 64.7724 80.9699 60.8236C80.6541 58.5414 80.2972 57.284 79.3607 55.0786C77.5037 51.581 76.1827 49.6594 72.2956 46.4456L55.1277 9.69655L48.4564 37.4258L33.4316 9.69655Z"/>
</mask>
<path d="M33.4316 9.69655L24.3819 46.8235C21.9547 48.8815 20.8001 50.1839 19.1082 52.714C17.2165 55.8196 16.6859 57.6049 16.1974 60.8271C16.0827 61.872 16.0538 62.6149 16.0969 63.5218C16.1703 64.9657 16.2931 65.7428 16.5863 67.0997C17.3672 69.9069 18.0561 71.3729 19.6706 73.8163C20.0872 74.499 21.6598 76.3658 21.9746 76.608C23.814 78.501 24.9993 79.4497 27.3142 80.9938C29.5704 82.3823 30.8956 83.0411 33.3397 84.054C38.9974 86.0883 42.2145 86.6119 47.9972 86.8399C52.606 86.8302 55.1409 86.4706 59.6048 85.4158C63.9015 84.1894 66.2174 83.2491 70.0789 80.8371C72.1601 79.3923 73.3146 78.5493 75.2129 76.6199C75.8542 75.8942 76.5126 75.2185 77.4982 73.8084C78.1467 72.8271 78.4888 72.2764 79.0125 71.2919C80.4973 68.4078 81.3936 64.7724 80.9699 60.8236C80.6541 58.5414 80.2972 57.284 79.3607 55.0786C77.5037 51.581 76.1827 49.6594 72.2956 46.4456L55.1277 9.69655L48.4564 37.4258L33.4316 9.69655Z" stroke="black" stroke-width="8" mask="url(#path-1-inside-1)"/>
</svg>
