<?xml version="1.0" encoding="UTF-8" standalone="no"?>
<!-- Created with Inkscape (http://www.inkscape.org/) -->

<svg
   xmlns:dc="http://purl.org/dc/elements/1.1/"
   xmlns:cc="http://creativecommons.org/ns#"
   xmlns:rdf="http://www.w3.org/1999/02/22-rdf-syntax-ns#"
   xmlns:svg="http://www.w3.org/2000/svg"
   xmlns="http://www.w3.org/2000/svg"
   xmlns:sodipodi="http://sodipodi.sourceforge.net/DTD/sodipodi-0.dtd"
   xmlns:inkscape="http://www.inkscape.org/namespaces/inkscape"
   width="150"
   height="150"
   viewBox="0 0 39.687499 39.687499"
   version="1.1"
   id="svg8"
   inkscape:version="0.92.4 (5da689c313, 2019-01-14)"
   sodipodi:docname="MHST2-Crimson Qurupeco Egg.svg">
  <defs
     id="defs2" />
  <sodipodi:namedview
     id="base"
     pagecolor="#ffffff"
     bordercolor="#666666"
     borderopacity="1.0"
     inkscape:pageopacity="0.0"
     inkscape:pageshadow="2"
     inkscape:zoom="1.979899"
     inkscape:cx="21.662254"
     inkscape:cy="57.863072"
     inkscape:document-units="px"
     inkscape:current-layer="layer1"
     showgrid="false"
     units="px"
     inkscape:window-width="1304"
     inkscape:window-height="745"
     inkscape:window-x="-8"
     inkscape:window-y="-8"
     inkscape:window-maximized="1"
     showguides="true"
     inkscape:guide-bbox="true"
     inkscape:snap-smooth-nodes="false"
     inkscape:snap-global="true">
    <inkscape:grid
       type="xygrid"
       id="grid878" />
  </sodipodi:namedview>
  <metadata
     id="metadata5">
    <rdf:RDF>
      <cc:Work
         rdf:about="">
        <dc:format>image/svg+xml</dc:format>
        <dc:type
           rdf:resource="http://purl.org/dc/dcmitype/StillImage" />
        <dc:title></dc:title>
      </cc:Work>
    </rdf:RDF>
  </metadata>
  <g
     inkscape:label="Layer 1"
     inkscape:groupmode="layer"
     id="layer1"
     transform="translate(0,-257.31251)">
    <path
       inkscape:connector-curvature="0"
       style="fill:#ff3459;fill-opacity:1;stroke:none;stroke-width:1.05833328;stroke-linecap:butt;stroke-linejoin:miter;stroke-miterlimit:4;stroke-dasharray:none;stroke-opacity:1"
       d="m 19.84375,259.34934 c -5.953125,0 -14.0797614,5.97667 -14.0797614,18.92236 0,10.44157 7.3398604,16.69148 14.0797614,16.69148 6.739901,0 14.079758,-6.24991 14.079758,-16.69148 0,-12.94569 -8.126633,-18.92236 -14.079758,-18.92236 z"
       id="path4584-5-7" />
    <path
       inkscape:connector-curvature="0"
       style="fill:#f8e500;fill-opacity:1;stroke:none;stroke-width:0.26458332px;stroke-linecap:butt;stroke-linejoin:miter;stroke-opacity:1"
       d="m 20.118668,259.23126 c -1.135988,-0.0125 -2.392843,0.16581 -2.412772,0.53123 -0.03544,0.64965 0.909431,3.01222 1.64176,3.01222 0.578776,0 1.145592,-1.02792 1.299145,-1.28778 0.153553,-0.25986 1.48843,-1.32277 1.264006,-1.87792 -0.09818,-0.24288 -0.908592,-0.36802 -1.792139,-0.37775 z m -4.851383,2.18126 c -0.545213,0.0276 -1.736919,0.74119 -1.293978,1.17305 0.47247,0.46066 2.326841,-1.02769 1.393713,-1.16943 -0.02992,-0.005 -0.06339,-0.005 -0.09974,-0.004 z m -3.467489,1.37356 c 0,0 -3.3073656,3.31925 -2.8230834,3.66179 0.484282,0.34254 3.0475074,-0.94479 3.1538124,-1.71256 0.106306,-0.76776 -0.330729,-1.94923 -0.330729,-1.94923 z m 7.527189,2.71043 c -1.570208,0 -3.090418,0.66803 -3.073714,2.73936 0.0167,2.07134 -0.584415,3.6918 -2.388485,4.51032 -1.804069,0.81851 -2.104999,1.78719 -1.620572,3.30729 0.484425,1.52009 6.67844,0.84801 9.37152,-0.971 2.69308,-1.81901 3.614176,-6.30755 2.527495,-7.3706 -1.086682,-1.06306 -3.821161,-2.21537 -4.816244,-2.21537 z m 7.717358,0.38447 c -0.593003,0 -1.102497,0.20021 -1.027327,0.74311 0.07517,0.54289 0.96902,1.36973 1.628841,1.2361 0.659823,-0.13364 0.601223,-0.85178 0.47594,-1.09399 -0.125283,-0.24221 -0.751721,-0.88522 -1.077454,-0.88522 z m -14.999084,0.82372 c -0.149773,-0.006 -0.304,0.0168 -0.457853,0.0739 -0.708648,0.26321 -1.169363,2.19706 -0.744141,3.40186 0.425223,1.2048 2.244383,0.16529 2.421558,-0.92139 0.08926,-0.54747 0.143004,-1.31323 -0.148311,-1.85622 -0.215197,-0.40111 -0.621934,-0.68012 -1.071253,-0.69815 z m -5.3836505,5.09375 -0.5312336,2.32699 c 0,0 0.319065,0.59088 1.0159587,0.2129 0.6968935,-0.37798 0.2121686,-2.00836 -0.4847251,-2.53989 z m 20.1574255,0.50178 c -0.193066,-0.008 -0.389465,0.007 -0.584977,0.0537 -1.206911,0.28557 -1.641907,2.25575 -0.838708,3.34243 0.803199,1.08668 2.88192,1.32285 3.283521,-0.0946 0.401597,-1.41741 0.121187,-2.43434 -0.33073,-2.75177 -0.401343,-0.28191 -0.949901,-0.52443 -1.529106,-0.54983 z m 4.902544,2.651 c -0.718286,0 -1.1274,0.61827 -1.093991,1.47019 0.03341,0.85193 -0.425897,1.42781 -1.085721,2.04587 -0.65982,0.61806 -1.010621,0.88537 -0.35915,2.41381 0.651467,1.52845 1.018526,3.30781 2.613792,3.30781 1.595263,0 1.937721,-2.58641 2.079461,-5.06688 0.14174,-2.48047 -0.4347,-4.1708 -2.154391,-4.1708 z m -24.138062,1.01906 c -1.0523738,0 -2.1376965,1.82066 -1.5363401,2.83962 0.6013566,1.01897 2.7895224,1.58684 3.5579221,1.65364 0.768399,0.0668 0.785094,-1.0358 0.61805,-1.83761 -0.167043,-0.80181 -1.6039623,-2.65565 -2.639632,-2.65565 z m 8.636165,2.40553 c -1.837478,0 -3.507717,1.11872 -3.207039,2.15439 0.300678,1.03567 1.319664,1.70383 2.054655,1.2361 0.734992,-0.46772 2.02116,-1.33614 3.040124,-1.20251 1.018965,0.13364 1.603853,-0.41759 0.902271,-1.2361 -0.701582,-0.81851 -1.854567,-0.95188 -2.790011,-0.95188 z m 8.268746,1.17719 c -1.294586,0 -2.138061,0.33428 -2.271696,1.36994 -0.133635,1.03567 0.225661,2.54765 0.910539,2.49753 0.684878,-0.0501 0.89355,-1.10266 1.144116,-1.31982 0.250565,-0.21716 1.319488,0.28389 1.71204,-0.30076 0.392552,-0.58465 0.467872,-1.21105 0.242363,-1.59525 -0.225508,-0.3842 -1.094244,-0.65164 -1.737362,-0.65164 z m -18.4288488,1.73065 c 0,0 0.5548572,3.6025 0.9446451,3.7915 0.3897881,0.18899 1.3821973,-1.37002 1.3585735,-2.20865 -0.023625,-0.83864 -1.7598779,-1.58285 -2.3032186,-1.58285 z m 11.4799198,1.40146 c -1.169305,0 -3.842117,1.1696 -3.741891,2.43913 0.100226,1.26953 1.202704,1.60335 1.286227,2.28823 0.08352,0.68488 -0.04983,0.88557 0.434598,1.62057 0.484426,0.73498 1.336486,1.67021 2.50579,1.77044 1.169305,0.10022 2.203336,-0.73802 2.09703,-1.90738 -0.106306,-1.16936 -1.069038,-0.57265 -1.210779,-2.07274 -0.141741,-1.5001 0.555448,-1.72474 0.295589,-2.51613 -0.259859,-0.79139 -0.93513,-1.62212 -1.666564,-1.62212 z m -7.9721237,2.6262 c -0.4344755,-0.0472 -1.0040752,1.20464 -0.6733439,1.71255 0.3307267,0.5079 0.8977674,0.28356 0.8387085,-0.23616 -0.059059,-0.51972 0.3665351,-0.63768 0.3901571,-0.88573 0.02362,-0.24805 -0.2484611,-0.55728 -0.5555217,-0.59066 z M 26.1984,285.52371 c -0.897693,0 -0.744214,1.46502 -1.169437,2.0438 -0.425224,0.57877 -0.909209,1.83068 -0.117822,3.11816 0.791388,1.28748 2.846338,1.22842 3.673161,-0.41341 0.826823,-1.64184 -1.145667,-4.74855 -2.385902,-4.74855 z m -14.374833,3.53208 c -0.755952,0 -1.783722,0.83856 -1.760099,1.14567 0.02363,0.30711 4.736735,3.81511 4.996594,3.62613 0.259858,-0.18899 0.09442,-1.15776 -0.507979,-1.77198 -0.602399,-0.61421 -1.641834,-1.3345 -1.736328,-1.78335 -0.09449,-0.44886 -0.307106,-1.21647 -0.992188,-1.21647 z"
       id="path4667" />
    <path
       style="opacity:0.23800001;fill:#ffffff;fill-opacity:1;stroke:none;stroke-width:0.26458332px;stroke-linecap:butt;stroke-linejoin:miter;stroke-opacity:1"
       d="m 19.84375,259.34933 c -8.8857,0 -14.0797608,9.48073 -14.0797608,18.92236 0,0 1.7175332,-16.91778 14.0797608,-16.91778 12.362227,0 14.07976,16.91778 14.07976,16.91778 0,-9.44163 -5.19406,-18.92236 -14.07976,-18.92236 z"
       id="path4669-4"
       inkscape:connector-curvature="0"
       sodipodi:nodetypes="scscs" />
    <path
       style="opacity:0.54100001;fill:#000000;stroke:none;stroke-width:0.26458332px;stroke-linecap:butt;stroke-linejoin:miter;stroke-opacity:1"
       d="m 5.7639892,278.27169 c 0.2495754,12.68227 10.9383318,16.69149 14.0797608,16.69149 3.141429,0 13.830186,-4.00922 14.07976,-16.69149 -1.821762,10.2695 -10.606269,13.43381 -14.07976,13.43381 -3.473491,0 -12.2579969,-3.16431 -14.0797608,-13.43381 z"
       id="path4617-4"
       inkscape:connector-curvature="0" />
    <path
       style="fill:none;stroke:#000000;stroke-width:1.05833328;stroke-linecap:butt;stroke-linejoin:miter;stroke-miterlimit:4;stroke-dasharray:none;stroke-opacity:1"
       d="m 19.84375,259.34933 c -5.953125,0 -14.0797608,5.97667 -14.0797608,18.92236 0,10.44158 7.3398598,16.69149 14.0797608,16.69149 6.739901,0 14.07976,-6.24991 14.07976,-16.69149 0,-12.94569 -8.126635,-18.92236 -14.07976,-18.92236 z"
       id="path4584-7"
       inkscape:connector-curvature="0" />
  </g>
</svg>
