<svg width="92" height="101" viewBox="0 0 92 101" fill="none" xmlns="http://www.w3.org/2000/svg">
<path d="M27.7143 48.5714V37.1428H2V53.7143C3.62175 69.1073 23.7143 82.2857 33.4286 82.2857V98.8571H58.5714V82.2857C68.8571 82.2857 88.8163 66.7386 90 53.7143V37.1428H64.8571V48.5714C62.5714 59.4285 30 58.8571 27.7143 48.5714Z" fill="#6B73B5" stroke="black" stroke-width="3"/>
<path d="M27.7143 4V37.1429H2C3.42963 24.734 9.34402 17.4597 27.7143 4Z" fill="#DF4A6A"/>
<path d="M90 37.1429H64.8571V4C82.2112 17.1347 88.267 24.4054 90 37.1429Z" fill="#DF4A6A"/>
<path d="M27.7143 4V37.1429H2C3.42963 24.734 9.34402 17.4597 27.7143 4Z" stroke="black" stroke-width="3"/>
<path d="M90 37.1429H64.8571V4C82.2112 17.1347 88.267 24.4054 90 37.1429Z" stroke="black" stroke-width="3"/>
</svg>
