<svg width="76" height="97" viewBox="0 0 76 97" fill="none" xmlns="http://www.w3.org/2000/svg">
<path d="M0.682103 32.2358L16.0073 16.9106L22.8773 22.1952L13.8935 33.2927L26.048 34.3497L28.6903 41.748H47.1863L51.4139 34.3497L64.0969 33.2927L54.0562 22.1952L59.8692 16.9106L75.1944 32.2358C76.3554 33.6325 76.178 34.3025 75.1944 35.4066L56.17 48.618L45.6009 65.5286L58.8123 96.179H47.1863L38.731 73.4554L30.2757 96.179H19.1781L30.8041 65.5286L20.235 48.618L0.682103 35.4066C-0.185946 34.3067 -0.267867 33.6255 0.682103 32.2358Z" fill="white"/>
<path d="M30.2757 14.7968L26.5765 17.9675L14.422 10.0407L21.2919 3.17074L30.2757 14.7968Z" fill="white"/>
<path d="M41.3732 14.7968H35.0318L32.3895 0H44.0155L41.3732 14.7968Z" fill="white"/>
<path d="M50.8855 18.496L46.6578 14.7968L55.1131 3.17074L61.983 10.0407L50.8855 18.496Z" fill="white"/>
<circle cx="38.2025" cy="30.122" r="10.0407" fill="white"/>
</svg>
