<svg width="100" height="100" viewBox="0 0 100 100" fill="none" xmlns="http://www.w3.org/2000/svg">
<path d="M12.6821 34.2358L28.0073 18.9106L34.8773 24.1952L25.8935 35.2927L38.048 36.3497L40.6903 43.748H59.1863L63.4139 36.3497L76.0969 35.2927L66.0562 24.1952L71.8692 18.9106L87.1944 34.2358C88.3554 35.6325 88.178 36.3025 87.1944 37.4066L68.17 50.618L57.6009 67.5286L70.8123 98.179H59.1863L50.731 75.4554L42.2757 98.179H31.1781L42.8041 67.5286L32.235 50.618L12.6821 37.4066C11.8141 36.3067 11.7321 35.6255 12.6821 34.2358Z" fill="white"/>
<path d="M42.2757 16.7968L38.5765 19.9675L26.422 12.0407L33.2919 5.17074L42.2757 16.7968Z" fill="white"/>
<path d="M53.3732 16.7968H47.0318L44.3895 2H56.0155L53.3732 16.7968Z" fill="white"/>
<path d="M62.8855 20.496L58.6578 16.7968L67.1131 5.17074L73.983 12.0407L62.8855 20.496Z" fill="white"/>
<circle cx="50.2025" cy="32.122" r="10.0407" fill="white"/>
</svg>
