<svg width="95" height="90" viewBox="0 0 95 90" fill="none" xmlns="http://www.w3.org/2000/svg">
<path d="M0 39.3413L6.9774 32.3353L15.0282 39.3413L47.2316 7.00599L61.1864 21.018L54.7458 27.485L47.2316 19.9401L38.6441 28.5629L64.4068 54.4311L76.2147 42.5748L82.6554 49.0419L63.3333 68.4431L48.3051 53.3533L32.2034 69.521L46.1582 83.5329L39.7175 90L18.2486 68.4431L35.9604 50.6587L26.2994 40.9581L13.9548 53.3533L0 39.3413Z" fill="white"/>
<path d="M18.7853 4.31138L8.05085 15.0898L20.3955 27.485L31.1299 16.7066L18.7853 4.31138Z" fill="white"/>
<path d="M95 0L59.5763 1.07784V8.62275L95 14.012V0Z" fill="white"/>
<path d="M70.3107 33.4132V27.485L95 24.2515V37.7245L70.3107 33.4132Z" fill="white"/>
<path d="M75.1412 71.1377V65.2096L95 61.976V72.7545L75.1412 71.1377Z" fill="white"/>
</svg>
