<svg width="100" height="100" viewBox="0 0 100 100" fill="none" xmlns="http://www.w3.org/2000/svg">
<path d="M2 44.3413L8.9774 37.3353L17.0282 44.3413L49.2316 12.006L63.1864 26.018L56.7458 32.485L49.2316 24.9401L40.6441 33.5629L66.4068 59.4311L78.2147 47.5748L84.6554 54.0419L65.3333 73.4431L50.3051 58.3533L34.2034 74.521L48.1582 88.5329L41.7175 95L20.2486 73.4431L37.9604 55.6587L28.2994 45.9581L15.9548 58.3533L2 44.3413Z" fill="currentColor"/>
<path d="M20.7853 9.31138L10.0508 20.0898L22.3955 32.485L33.1299 21.7066L20.7853 9.31138Z" fill="currentColor"/>
<path d="M97 5L61.5763 6.07784V13.6228L97 19.012V5Z" fill="currentColor"/>
<path d="M72.3107 38.4132V32.485L97 29.2515V42.7245L72.3107 38.4132Z" fill="currentColor"/>
<path d="M77.1412 76.1377V70.2096L97 66.976V77.7545L77.1412 76.1377Z" fill="currentColor"/>
</svg>
