<svg width="98" height="84" viewBox="0 0 98 84" fill="none" xmlns="http://www.w3.org/2000/svg">
<path d="M28.2373 22.2517L44.2938 20.0265L43.1864 1.66887L59.2429 11.1258L75.8531 0L77.5141 18.9139H97.4463L86.9266 31.1523L98 47.8411H83.6045V65.6424L68.6554 56.1854L55.3672 72.3179L45.9548 52.8477L28.2373 51.1788L39.3107 36.7152L28.2373 22.2517Z" fill="white"/>
<path d="M8.30508 62.8609V51.1788L15.5028 56.1854L22.7006 48.9536L23.8079 59.5232L33.774 60.6358L27.1299 67.8676L33.2203 75.6556H23.8079L21.0395 84L15.5028 77.8808L8.30508 81.2185V71.2053L0 63.9735L8.30508 62.8609Z" fill="white"/>
<path d="M12.7345 31.1523C11.6217 26.7168 10.6402 24.5308 4.98305 23.9205C10.4572 21.2857 12.0228 19.0247 12.7345 13.9073C14.4156 19.2471 16.6524 21.072 22.7006 22.2517C15.9251 23.5754 13.9314 25.6656 12.7345 31.1523Z" fill="white"/>
</svg>
