<svg width="100" height="100" viewBox="0 0 100 100" fill="none" xmlns="http://www.w3.org/2000/svg">
<path d="M29.2373 30.2517L45.2938 28.0265L44.1864 9.66887L60.2429 19.1258L76.8531 8L78.5141 26.9139H98.4463L87.9266 39.1523L99 55.8411H84.6045V73.6424L69.6554 64.1854L56.3672 80.3179L46.9548 60.8477L29.2373 59.1788L40.3107 44.7152L29.2373 30.2517Z" fill="currentColor"/>
<path d="M9.30508 70.8609V59.1788L16.5028 64.1854L23.7006 56.9536L24.8079 67.5232L34.774 68.6358L28.1299 75.8676L34.2203 83.6556H24.8079L22.0395 92L16.5028 85.8808L9.30508 89.2185V79.2053L1 71.9735L9.30508 70.8609Z" fill="currentColor"/>
<path d="M13.7345 39.1523C12.6217 34.7168 11.6402 32.5308 5.98305 31.9205C11.4572 29.2857 13.0228 27.0247 13.7345 21.9073C15.4156 27.2471 17.6524 29.072 23.7006 30.2517C16.9251 31.5754 14.9314 33.6656 13.7345 39.1523Z" fill="currentColor"/>
</svg>
